<svg width="513" height="43" viewBox="0 0 513 43" fill="none" xmlns="http://www.w3.org/2000/svg">
<path d="M175.321 18.6213L178.201 16.5903C176.715 14.3854 174.199 12.9354 171.345 12.9354C166.778 12.9354 163.075 16.6502 163.075 21.2325C163.075 25.8148 166.778 29.5295 171.345 29.5295C174.199 29.5295 176.715 28.0798 178.201 25.8746L175.321 23.8436C174.515 25.0696 173.157 25.8746 171.617 25.8746C169.144 25.8746 167.139 23.7963 167.139 21.2325C167.139 18.6686 169.144 16.5903 171.617 16.5903C173.157 16.5903 174.515 17.3953 175.321 18.6213ZM233.956 13.9106H237.676L237.675 25.1448H239.69L239.688 13.9106H243.397V25.1448H245.419L245.419 13.9106H249.161V28.5541H233.956V13.9106ZM194.739 22.6248V25.2739H197.653C199.426 25.0821 199.166 22.602 197.653 22.6248H194.739ZM199.23 28.5541H191.009V13.9106H198.6C202.265 13.8881 203.701 18.7579 200.645 20.8548C204.516 22.5682 203.429 28.4192 199.23 28.5541ZM194.739 19.6373H197.653C199.329 19.536 199.23 17.2474 197.643 17.1911H194.739V19.6373ZM224.369 13.9106H228.708L233.558 28.5541H229.491L226.598 19.2877L224.924 25.1385H227.175C227.61 25.1274 227.773 25.2964 227.631 25.7698L226.631 28.5541H220.008L224.369 13.9106ZM215.59 22.12H220.709V22.8281H219.271V28.5541H215.59L215.59 22.12ZM208.214 22.12H215.279L212.796 28.5551H210.632L208.214 22.12ZM204.117 22.12H207.875V28.5541H204.117V22.12ZM204.117 20.9199H220.709V21.6278H204.117V20.9199ZM204.117 19.7199H220.709V20.4277H204.117V19.7199ZM219.271 13.9106H214.638L212.427 19.2274H219.271V13.9106ZM204.117 13.9106H208.745L210.967 19.2274H204.117V13.9106ZM171.124 20.9199H187.948V21.6278H171.124V20.9199ZM171.124 19.7199H187.948V20.4277H171.124V19.7199ZM171.124 22.12H187.948V22.8281H183.113V25.1448H189.616V28.5541H179.191V22.8292L171.124 22.8281V22.12ZM179.191 13.9106H189.495V17.3689H183.114L183.113 19.2274H179.191V13.9106Z" fill="#C9C9C9"/>
<path fill-rule="evenodd" clip-rule="evenodd" d="M139.413 10.2503H157.071C158.043 10.2503 158.837 11.0738 158.837 12.0805V30.3846C158.837 31.3915 158.043 32.2151 157.071 32.2151H139.413C138.442 32.2151 137.647 31.3915 137.647 30.3846V12.0805C137.647 11.0738 138.442 10.2503 139.413 10.2503ZM139.413 11.0922H157.071C157.596 11.0922 158.025 11.5369 158.025 12.0805V30.3846C158.025 30.9283 157.596 31.373 157.071 31.373H139.413C138.889 31.373 138.459 30.9283 138.459 30.3846V12.0805C138.459 11.5369 138.889 11.0922 139.413 11.0922ZM143.985 25.145C144.697 23.7367 146.04 22.7254 147.625 22.5148C147.764 22.4966 147.871 22.3734 147.871 22.2244V12.9644C147.871 12.7523 148.037 12.5802 148.242 12.5802C148.447 12.5802 148.613 12.7523 148.613 12.9641V22.2244C148.613 22.3734 148.721 22.4966 148.859 22.5148C150.444 22.7254 151.787 23.7367 152.499 25.145H157.195C157.4 25.145 157.566 25.317 157.566 25.5294C157.566 25.7416 157.4 25.9136 157.195 25.9136L151.252 25.9138C150.704 24.765 149.562 23.9751 148.242 23.9751C146.922 23.9751 145.781 24.765 145.233 25.9138L139.289 25.9136C139.084 25.9136 138.919 25.7416 138.919 25.5294C138.919 25.317 139.084 25.145 139.289 25.145H143.985ZM155.641 27.4512L149.16 27.4519C149.16 26.9272 148.749 26.5008 148.242 26.5008C147.735 26.5008 147.324 26.9272 147.324 27.4519L140.843 27.4512C140.639 27.4512 140.473 27.2792 140.473 27.0668C140.473 26.8547 140.639 26.6824 140.843 26.6824H145.589C145.913 25.4798 146.978 24.5973 148.242 24.5973C149.506 24.5973 150.571 25.4798 150.896 26.6824H155.641C155.846 26.6824 156.012 26.8547 156.012 27.0668C156.012 27.2792 155.846 27.4512 155.641 27.4512ZM149.355 21.8529V15.4985C149.355 15.2864 149.521 15.1144 149.725 15.1144C149.93 15.1144 150.096 15.2864 150.096 15.4985V21.1861C151.423 21.6076 152.565 22.4697 153.361 23.6073H155.641C155.846 23.6073 156.012 23.7796 156.012 23.9917C156.012 24.2041 155.846 24.3762 155.641 24.3762H152.758C152.007 23.194 150.835 22.324 149.464 21.9955C149.401 21.9802 149.355 21.9222 149.355 21.8529ZM147.13 21.8529V15.4985C147.13 15.2864 146.964 15.1144 146.759 15.1144C146.554 15.1144 146.388 15.2864 146.388 15.4985V21.1861C145.061 21.6076 143.92 22.4697 143.123 23.6073H140.843C140.639 23.6073 140.473 23.7796 140.473 23.9917C140.473 24.2041 140.639 24.3762 140.843 24.3762H143.726C144.477 23.194 145.649 22.324 147.021 21.9955C147.083 21.9802 147.13 21.9222 147.13 21.8529Z" fill="#C9C9C9"/>
<path fill-rule="evenodd" clip-rule="evenodd" d="M344.955 40.6799H356.928L357.127 40.6852L357.337 40.6994L357.545 40.7226L357.749 40.7546L357.952 40.7938L358.15 40.8436L358.346 40.9005L358.536 40.9646L358.723 41.0375L358.905 41.1194L359.084 41.2066L359.257 41.3009L359.427 41.4023L359.59 41.5091L359.749 41.623L359.904 41.744L360.053 41.8686L360.195 42.0002L360.333 42.1373L360.465 42.2778L360.467 42.2796L360.468 42.2778L360.6 42.1373L360.737 42.0002L360.881 41.8703L361.03 41.744L361.184 41.623L361.342 41.5091L361.507 41.4023L361.675 41.3009L361.848 41.2066L362.026 41.1194L362.21 41.0375L362.397 40.9646L362.588 40.9005L362.784 40.8436L362.981 40.7938L363.182 40.7546L363.389 40.7226L363.596 40.6994L363.806 40.6852L364.005 40.6799H375.977L376.124 40.6781L376.252 40.6692L376.374 40.655L376.491 40.6354L376.604 40.6123L376.713 40.5838L376.815 40.55L376.914 40.5126L377.01 40.4717L377.1 40.4272L377.186 40.3791L377.268 40.3258L377.347 40.2706L377.42 40.2119L377.491 40.1478L377.561 40.082L377.625 40.009L377.685 39.9343L377.744 39.856L377.8 39.7723L377.85 39.6834L377.899 39.5908L377.944 39.493L377.985 39.388L378.022 39.2794L378.056 39.1656L378.084 39.0463L378.108 38.92L378.129 38.7883L378.143 38.6513L378.152 38.5072L378.155 38.3434V0.131348H342.778V38.3434L342.782 38.5072L342.791 38.6495L342.804 38.7883L342.823 38.92L342.848 39.0463L342.877 39.1656L342.91 39.2794L342.948 39.388L342.99 39.4912L343.035 39.5908L343.082 39.6834L343.134 39.7723L343.189 39.856L343.246 39.9343L343.309 40.009L343.373 40.082L343.44 40.1478L343.511 40.2119L343.586 40.2706L343.666 40.3258L343.747 40.3791L343.832 40.4272L343.924 40.4717L344.018 40.5126L344.116 40.55L344.22 40.5838L344.328 40.6123L344.442 40.6354L344.558 40.655L344.681 40.6692L344.809 40.6781L344.955 40.6799Z" fill="#C9C9C9"/>
<path fill-rule="evenodd" clip-rule="evenodd" d="M360.467 42.4653L360.56 42.3693L360.691 42.2302L360.824 42.097L360.964 41.9707L361.109 41.8472L361.259 41.7293L361.413 41.6188L361.573 41.5149L361.737 41.416L361.905 41.3243L362.079 41.2393L362.258 41.1596L362.44 41.0888L362.625 41.0265L362.816 40.9709L363.008 40.9224L363.204 40.8844L363.405 40.8531L363.608 40.8306L363.812 40.8167L364.007 40.8115H375.978L376.129 40.8097L376.264 40.8003L376.391 40.7854L376.516 40.7645L376.632 40.7407L376.748 40.7104L376.859 40.6736L376.963 40.6342L377.062 40.5919L377.158 40.5446L377.251 40.4928L377.339 40.4351L377.422 40.3772L377.502 40.3133L377.578 40.2447L377.651 40.1748L377.723 40.0936L377.786 40.015L377.848 39.9336L377.908 39.8427L377.962 39.7461L378.012 39.6505L378.06 39.5462L378.105 39.4345L378.143 39.3189L378.179 39.2007L378.209 39.072L378.234 38.9413L378.256 38.8059L378.27 38.6596L378.279 38.5102L378.283 38.3436L378.283 6.04216e-05H342.651V38.3465L342.654 38.5155L342.664 38.6631L342.678 38.8049L342.698 38.9426L342.723 39.0755L342.755 39.2033L342.789 39.3208L342.829 39.4357L342.874 39.5469L342.922 39.6518L342.97 39.7479L343.026 39.8435L343.085 39.9328L343.147 40.0169L343.214 40.0974L343.282 40.1742L343.356 40.247L343.431 40.3138L343.512 40.3776L343.597 40.4369L343.682 40.4925L343.774 40.5446L343.874 40.5929L343.971 40.635L344.075 40.6746L344.185 40.7104L344.3 40.7407L344.421 40.7653L344.541 40.7854L344.673 40.8006L344.804 40.8097L344.955 40.8115L356.926 40.8115L357.121 40.8167L357.326 40.8306L357.529 40.8531L357.728 40.8844L357.925 40.9225L358.117 40.9709L358.309 41.0265L358.494 41.0888L358.675 41.1595L358.852 41.2392L359.027 41.3243L359.195 41.4161L359.361 41.5149L359.519 41.6188L359.674 41.7295L359.825 41.8475L359.97 41.9687L360.108 42.0967L360.243 42.2305L360.375 42.3711L360.467 42.4653ZM360.467 42.0906L360.508 42.0461L360.651 41.9037L360.797 41.7716L360.949 41.6426L361.107 41.5186L361.271 41.3997L361.439 41.2912L361.61 41.1876L361.788 41.0905L361.972 41.0008L362.162 40.9158L362.355 40.8407L362.548 40.7757L362.749 40.7172L362.954 40.6654L363.159 40.6256L363.37 40.5928L363.583 40.5689L363.798 40.5542L364.002 40.5486L375.977 40.5486L376.119 40.5468L376.241 40.5384L376.356 40.5249L376.469 40.5062L376.576 40.4842L376.678 40.4575L376.774 40.4258L376.868 40.3903L376.957 40.3518L377.042 40.3101L377.122 40.2658L377.197 40.2168L377.199 40.215L377.273 40.1643L377.339 40.1107L377.405 40.0513L377.407 40.049L377.47 39.9895L377.529 39.9229L377.586 39.852L377.641 39.7787L377.692 39.7023L377.739 39.6193L377.785 39.5315L377.827 39.4401L377.866 39.3418L377.9 39.2385L377.933 39.1307L377.959 39.0184L377.983 38.8968L378.003 38.7711L378.016 38.6406L378.024 38.5018L378.027 38.3436V0.262964H342.906V38.3422L342.909 38.5018L342.918 38.6388L342.931 38.772L342.949 38.8977L342.972 39.0175L343 39.1307L343.031 39.2384L343.067 39.3405L343.107 39.4384L343.149 39.5328L343.193 39.6192L343.241 39.7015L343.293 39.7795L343.346 39.852L343.404 39.9222L343.464 39.9901L343.526 40.0507L343.592 40.1102L343.66 40.1639L343.736 40.2159L343.812 40.2661L343.89 40.3101L343.976 40.3518L344.064 40.3905L344.157 40.4257L344.255 40.4575L344.356 40.4842L344.465 40.5062L344.576 40.5249L344.693 40.5384L344.815 40.5469L344.956 40.5486H356.928L357.131 40.554L357.345 40.5684L357.559 40.592L357.769 40.6248L357.979 40.6654L358.18 40.7161L358.38 40.7742L358.579 40.8407L358.772 40.9159L358.956 40.9991L359.138 41.088L359.317 41.1848L359.491 41.2888L359.658 41.3983L359.822 41.5151L359.981 41.6396L360.135 41.7687L360.28 41.9026L360.422 42.0425L360.467 42.0906Z" fill="#C9C9C9"/>
<path d="M350.28 32.1313H350.559V32.2612H350.28V32.1313ZM360.196 40.9397H360.647V41.0678H360.196V40.9397ZM359.732 40.5571H361.035V40.6852H359.732V40.5571ZM359.119 40.1727H361.633V40.3026H359.119V40.1727ZM358.008 39.7901H362.796V39.92H358.008V39.7901ZM344.51 39.4076H376.59V39.5357H344.51V39.4076ZM344.111 39.025H376.913V39.1531H344.111V39.025ZM343.891 38.6406H377.082V38.7705H343.891V38.6406ZM343.785 38.258H377.159V38.3879H343.785V38.258ZM343.765 37.8754H377.166V38.0053H343.765V37.8754ZM343.761 37.4929H377.166V37.621H343.761V37.4929ZM343.763 37.1103H377.166V37.2384H343.763V37.1103ZM343.763 36.7277H377.166V36.8558H343.763V36.7277ZM343.765 36.3433H377.166V36.4732H343.765V36.3433ZM343.766 35.9607H377.166V36.0906H343.766V35.9607ZM343.768 35.5782H377.166V35.7063H343.768V35.5782ZM343.77 35.1956H377.166V35.3237H343.77V35.1956ZM343.77 34.813H377.166V34.9411H343.77V34.813ZM343.771 34.4286H377.166V34.5585H343.771V34.4286ZM343.773 34.046H377.166V34.1759H343.773V34.046ZM343.773 33.6635H346.598V33.7934H343.773V33.6635ZM347.418 33.6635H359.77V33.7934H347.418V33.6635ZM361.087 33.6635H373.452V33.7934H361.087V33.6635ZM374.247 33.6635H377.166V33.7934H374.247V33.6635ZM343.773 33.2809H345.943V33.409H343.773V33.2809ZM348.227 33.2809H352.509V33.409H348.227V33.2809ZM354.887 33.2809H359.063V33.409H354.887V33.2809ZM361.792 33.2809H365.971V33.409H361.792V33.2809ZM368.347 33.2809H372.63V33.409H368.347V33.2809ZM374.913 33.2809H377.166V33.409H374.913V33.2809ZM343.768 32.8983H345.627V33.0264H343.768V32.8983ZM348.693 32.8983H352.055V33.0264H348.693V32.8983ZM355.363 32.8983H358.647V33.0264H355.363V32.8983ZM362.208 32.8983H365.492V33.0264H362.208V32.8983ZM368.801 32.8983H372.163V33.0264H368.801V32.8983ZM375.228 32.8983H377.166V33.0264H375.228V32.8983ZM343.884 32.5139H345.27V32.6438H343.884V32.5139ZM349.175 32.5139H351.615V32.6438H349.175V32.5139ZM355.862 32.5139H358.19V32.6438H355.862V32.5139ZM362.666 32.5139H364.995V32.6438H362.666V32.5139ZM369.241 32.5139H371.681V32.6438H369.241V32.5139ZM375.595 32.5139H377.046V32.6438H375.595V32.5139ZM370.296 32.1313H370.577V32.2612H370.296V32.1313Z" fill="#030035"/>
<path d="M358.635 27.8999V20.4137H358.762V27.8999H358.635ZM358.635 19.0738V18.4955H358.762V19.0738H358.635ZM358.635 15.3405V14.7622H358.762V15.3405H358.635ZM358.635 13.4223V6.30798H358.762V13.4223H358.635ZM349.343 17.9563V17.0114H349.468V17.9563H349.343ZM349.715 18.6289V15.9277H349.842V18.6289H349.715ZM350.088 18.9599V15.1021H350.215V18.9599H350.088ZM350.461 19.1663V14.2497H350.587V19.1663H350.461ZM350.835 22.7964V21.4263H350.96V22.7964H350.835ZM350.835 19.2767V13.1197H350.96V19.2767H350.835ZM351.208 23.341V20.7857H351.332V23.341H351.208ZM351.208 19.3087V11.3883H351.332V19.3087H351.208ZM351.58 23.6773V20.4529H351.707V23.6773H351.58ZM351.58 19.2856V10.1267H351.707V19.2856H351.58ZM351.953 23.9442V20.2269H352.079V23.9442H351.953ZM351.953 19.2215V9.53947H352.079V19.2215H351.953ZM352.325 24.1809V20.0525H352.452V24.1809H352.325ZM352.325 19.1236V9.24586H352.452V19.1236H352.325ZM352.7 24.4051V19.9137H352.824V24.4051H352.7ZM352.7 19.0044V9.09461H352.824V19.0044H352.7ZM353.072 24.6257V19.7945H353.197V24.6257H353.072ZM353.072 18.8674V9.03411H353.197V18.8674H353.072ZM353.445 24.8499V19.6895H353.571V24.8499H353.445ZM353.445 18.7197V9.04301H353.571V18.7197H353.445ZM353.817 25.0866V19.5934H353.944V25.0866H353.817ZM353.817 18.5667V9.11952H353.944V18.5667H353.817ZM354.19 25.35V19.4991H354.316V25.35H354.19ZM354.19 18.4172V9.27256H354.316V18.4172H354.19ZM354.564 25.6436V19.3977H354.689V25.6436H354.564ZM354.564 18.282V9.54481H354.689V18.282H354.564ZM354.937 25.9692V19.2802H355.062V25.9692H354.937ZM354.937 18.1805V9.97188H355.062V18.1805H354.937ZM355.309 26.3198V19.1201H355.436V26.3198H355.309ZM355.309 18.1592V10.5217H355.436V18.1592H355.309ZM355.309 8.73338V7.55004H355.436V8.73338H355.309ZM355.682 26.681V18.6966H355.809V26.681H355.682ZM355.682 18.5489V11.141H355.809V18.5489H355.682ZM355.682 9.44694V6.80978H355.809V9.44694H355.682ZM356.055 27.0387V11.7656H356.181V27.0387H356.055ZM356.055 9.94519V6.47525H356.181V9.94519H356.055ZM356.429 27.3714V12.3208H356.554V27.3714H356.429ZM356.429 10.3954V6.30442H356.554V10.3954H356.429ZM356.802 27.6597V18.6628H356.926V27.6597H356.802ZM356.802 17.4438V16.3922H356.926V17.4438H356.802ZM356.802 15.1732V12.7318H356.926V15.1732H356.802ZM356.802 10.8296V6.22256H356.926V10.8296H356.802ZM357.174 27.8839V18.7731H357.301V27.8839H357.174ZM357.174 17.3353V16.5007H357.301V17.3353H357.174ZM357.174 15.0629V12.9258H357.301V15.0629H357.174ZM357.174 11.2816V6.19409H357.301V11.2816H357.174ZM357.547 28.0263V18.661H357.673V28.0263H357.547ZM357.547 17.4456V16.3904H357.673V17.4456H357.547ZM357.547 15.175V12.8404H357.673V15.175H357.547ZM357.547 11.8012V6.20121H357.673V11.8012H357.547ZM357.919 28.0743V20.2838H358.046V28.0743H357.919ZM357.919 19.2037V14.6323H358.046V19.2037H357.919ZM357.919 13.5522V6.2279H358.046V13.5522H357.919ZM359.008 27.665V20.065H359.134V27.665H359.008ZM359.008 19.4226V18.8496H359.134V19.4226H359.008ZM359.008 14.9864V14.4134H359.134V14.9864H359.008ZM359.008 13.771V6.35246H359.134V13.771H359.008ZM359.382 27.2842V19.0827H359.507V27.2842H359.382ZM359.382 14.7533V6.39339H359.507V14.7533H359.382ZM359.755 25.64V20.6931H359.879V25.64H359.755ZM359.755 20.1557V19.2286H359.879V20.1557H359.755ZM359.755 14.6056V13.6803H359.879V14.6056H359.755ZM359.755 13.1429V6.42898H359.879V13.1429H359.755ZM360.127 21.9743V21.0846H360.254V21.9743H360.127ZM360.127 19.7642V19.3069H360.254V19.7642H360.127ZM360.127 14.5291V14.0718H360.254V14.5291H360.127ZM360.127 12.7514V6.44855H360.254V12.7514H360.127ZM360.5 21.8622V21.1362H360.626V21.8622H360.5ZM360.5 19.7126V19.3212H360.626V19.7126H360.5ZM360.5 14.5148V14.1234H360.626V14.5148H360.5ZM360.5 12.6998V6.45211H360.626V12.6998H360.5ZM360.872 22.1416V20.9565H360.999V22.1416H360.872ZM360.872 19.8906V19.2749H360.999V19.8906H360.872ZM360.872 14.5611V13.9454H360.999V14.5611H360.872ZM360.872 12.8795V6.43966H360.999V12.8795H360.872ZM361.247 26.7255V19.1628H361.371V26.7255H361.247ZM361.247 14.6732V6.41119H361.371V14.6732H361.247ZM361.619 27.4622V18.9742H361.744V27.4622H361.619ZM361.619 14.8618V6.37382H361.744V14.8618H361.619ZM361.992 27.7718V20.3088H362.118V27.7718H361.992ZM361.992 19.1788V18.6859H362.118V19.1788H361.992ZM361.992 15.1501V14.6572H362.118V15.1501H361.992ZM361.992 13.5272V6.32933H362.118V13.5272H361.992ZM362.364 27.964V20.46H362.491V27.964H362.364ZM362.364 19.0275V18.2339H362.491V19.0275H362.364ZM362.364 15.6021V14.8085H362.491V15.6021H362.364ZM362.364 13.376V6.28306H362.491V13.376H362.364ZM362.737 28.0601V20.3871H362.863V28.0601H362.737ZM362.737 19.1005V17.1217H362.863V19.1005H362.737ZM362.737 16.7143V14.7355H362.863V16.7143H362.737ZM362.737 13.4489V6.24214H362.863V13.4489H362.737ZM363.111 28.0636V19.8888H363.236V28.0636H363.111ZM363.111 19.5988V18.5311H363.236V19.5988H363.111ZM363.111 17.5755V16.2605H363.236V17.5755H363.111ZM363.111 15.3049V14.2372H363.236V15.3049H363.111ZM363.111 13.9472V12.698H363.236V13.9472H363.111ZM363.111 12.1464V6.21011H363.236V12.1464H363.111ZM363.484 27.9693V18.7553H363.609V27.9693H363.484ZM363.484 17.3513V16.4847H363.609V17.3513H363.484ZM363.484 15.0807V12.9276H363.609V15.0807H363.484ZM363.484 11.5022V6.19409H363.609V11.5022H363.484ZM363.856 27.786V18.7357H363.983V27.786H363.856ZM363.856 17.3727V16.4633H363.983V17.3727H363.856ZM363.856 15.1003V12.8368H363.983V15.1003H363.856ZM363.856 11.0164V6.20655H363.983V11.0164H363.856ZM364.229 27.5298V18.4314H364.356V27.5298H364.229ZM364.229 17.6752V16.1608H364.356V17.6752H364.229ZM364.229 15.4046V12.5094H364.356V15.4046H364.229ZM364.229 10.5662V6.26349H364.356V10.5662H364.229ZM364.602 27.2166V12.0129H364.728V27.2166H364.602ZM364.602 10.116V6.39339H364.728V10.116H364.602ZM364.976 26.8696V11.4168H365.101V26.8696H364.976ZM364.976 9.6409V6.64785H365.101V9.6409H364.976ZM365.348 26.5084V19.1058H365.473V26.5084H365.348ZM365.348 18.2339V10.7904H365.473V18.2339H365.348ZM365.348 9.07148V7.15678H365.473V9.07148H365.348ZM365.721 26.1507V19.3176H365.848V26.1507H365.721ZM365.721 18.136V10.1997H365.848V18.136H365.721ZM366.094 25.8091V19.4546H366.22V25.8091H366.094ZM366.094 18.1787V9.70496H366.22V18.1787H366.094ZM366.466 25.4994V19.5632H366.593V25.4994H366.466ZM366.466 18.2766V9.36331H366.593V18.2766H366.466ZM366.841 25.2201V19.6593H366.965V25.2201H366.841ZM366.841 18.4065V9.16935H366.965V18.4065H366.841ZM367.213 24.9709V19.7482H367.338V24.9709H367.213ZM367.213 18.5524V9.06436H367.338V18.5524H367.213ZM367.586 24.7414V19.8354H367.712V24.7414H367.586ZM367.586 18.7072V9.02877H367.712V18.7072H367.586ZM367.958 24.5207V19.9297H368.085V24.5207H367.958ZM367.958 18.8603V9.0608H368.085V18.8603H367.958ZM368.331 24.3001V20.0329H368.457V24.3001H368.331ZM368.331 19.008V9.17291H368.457V19.008H368.331ZM368.705 24.0705V20.1575H368.83V24.0705H368.705ZM368.705 19.1432V9.39712H368.83V19.1432H368.705ZM369.078 23.8214V20.3177H369.203V23.8214H369.078ZM369.078 19.2518V9.83842H369.203V19.2518H369.078ZM369.45 23.5296V20.5686H369.577V23.5296H369.45ZM369.45 19.3212V10.7673H369.577V19.3212H369.45ZM369.823 23.131V21.0223H369.95V23.131H369.823ZM369.823 19.3158V12.4756H369.95V19.3158H369.823ZM370.196 19.2268V13.8547H370.322V19.2268H370.196ZM370.57 19.0542V14.7711H370.695V19.0542H370.57ZM370.942 18.782V15.5896H371.067V18.782H370.942ZM371.315 18.3158V16.4918H371.44V18.3158H371.315ZM358.294 28.0263V20.4565H358.418V28.0263H358.294ZM358.294 19.0311V17.9617H358.418V19.0311H358.294ZM358.294 15.8743V14.8049H358.418V15.8743H358.294ZM358.294 13.3795V6.26705H358.418V13.3795H358.294Z" fill="#030035"/>
<path d="M12.2035 25.6239C9.77735 25.6239 7.8103 23.6569 7.8103 21.2306C7.8103 18.8042 9.77735 16.8371 12.2035 16.8371C14.63 16.8371 16.5971 18.8042 16.5971 21.2306C16.5971 23.6569 14.63 25.6239 12.2035 25.6239ZM25.3834 25.6239C22.9571 25.6239 20.9899 23.6569 20.9899 21.2306C20.9899 18.8042 22.9571 16.8371 25.3834 16.8371C26.3334 16.8371 27.2121 17.1397 27.931 17.6524L29.629 15.2669C28.4312 14.4126 26.9667 13.9085 25.3834 13.9085C22.4848 13.9085 19.9802 15.5931 18.7935 18.0363C17.607 15.5931 15.1021 13.9085 12.2035 13.9085C8.15971 13.9085 4.88144 17.1865 4.88144 21.2306C4.88144 25.2745 8.15971 28.5527 12.2035 28.5527C15.1021 28.5527 17.607 26.8681 18.7935 24.4251C19.9802 26.8681 22.4848 28.5527 25.3834 28.5527C26.9667 28.5527 28.4312 28.0486 29.629 27.1943L27.9307 24.8091C27.2121 25.3212 26.3334 25.6239 25.3834 25.6239ZM39.0516 14.0305H34.7803L29.0446 21.2306L34.7801 28.4307L39.0514 28.4305L32.5835 21.2306L39.0516 14.0305Z" fill="#C9C9C9"/>
<path fill-rule="evenodd" clip-rule="evenodd" d="M0 10.2503H43.9296V32.2151H0V10.2503ZM0.65917 10.9094H43.2707V31.5561H0.65917V10.9094Z" fill="#C9C9C9"/>
<path fill-rule="evenodd" clip-rule="evenodd" d="M487.376 6.68668L487.358 4.80391C487.342 3.06512 487.332 2.92181 487.225 2.92895C487.161 2.93322 485.538 3.50868 483.617 4.20777L480.126 5.47885V8.34113V11.2035L480.277 11.1569C480.359 11.1313 481.973 10.5584 483.863 9.88376L487.299 8.65725L490.682 9.25866C492.542 9.58946 494.135 9.86008 494.221 9.86008C494.373 9.86008 497.882 8.61862 497.984 8.52855C498.012 8.50366 496.374 8.20389 494.343 7.86248C492.312 7.52108 489.913 7.11682 489.013 6.96417L487.376 6.68668ZM512.759 6.79096C512.85 6.29557 512.946 5.65753 512.972 5.37317C512.998 5.08881 513.007 4.85909 512.993 4.86283C512.979 4.86649 503.977 8.15125 492.989 12.1622L473.01 19.4548L472.992 20.4032C472.977 21.1514 472.991 21.3448 473.058 21.3192C473.66 21.0902 508.753 9.5994 508.777 9.62349C508.867 9.71423 507.9 11.9979 507.188 13.3749C506.899 13.932 506.418 14.8109 506.118 15.328C505.401 16.5626 503.756 19.0403 503.601 19.1195C503.534 19.1538 503.283 19.2183 503.045 19.2629C501.212 19.6053 498.677 20.476 496.497 21.5116L495.557 21.9583L494.573 21.6504C492.295 20.937 490.318 20.5237 488.117 20.2999C487.018 20.1883 484.387 20.1716 483.391 20.2699C481.822 20.4247 480.134 20.786 478.883 21.2348C477.874 21.5969 476.472 22.3222 476.586 22.4228C476.604 22.4386 476.934 22.412 477.32 22.3639C480.724 21.939 484.757 22.2231 488.311 23.1383C490.738 23.7632 493.587 24.9068 495.111 25.868L495.558 26.1496L496.085 25.6943C499.15 23.0479 504.193 21.009 508.691 20.5978C510.033 20.4751 511.841 20.5926 512.783 20.8638C513.09 20.9522 513.053 20.8519 512.675 20.5747C511.55 19.7507 509.699 19.1183 507.914 18.9489L507.405 18.9006L508.004 17.9999C510.499 14.2499 512.062 10.5647 512.759 6.79096ZM490.862 11.063C490.832 11.062 490.08 10.9408 489.192 10.7938C488.303 10.6468 487.516 10.5144 487.443 10.4996C487.369 10.4847 484.896 11.3473 481.947 12.4165L476.585 14.3603V15.3206C476.585 16.2027 476.594 16.2782 476.702 16.249C476.938 16.1847 490.719 11.1809 490.817 11.124C490.872 11.0916 490.892 11.0642 490.862 11.063ZM474.53 29.3704C474.484 29.3572 474.447 29.2855 474.447 29.2109C474.447 29.0912 474.404 29.0754 474.079 29.0754C473.754 29.0754 473.712 29.0912 473.712 29.2109C473.712 29.2855 473.674 29.3572 473.628 29.3704C472.792 29.6099 472.259 30.0653 472.075 30.6998C471.891 31.3307 472.06 32.0189 472.506 32.4652C472.735 32.6938 473.213 32.9613 473.528 33.037C473.667 33.0705 473.712 33.1213 473.712 33.2467C473.712 33.4026 473.733 33.4122 474.075 33.4122C474.42 33.4122 474.439 33.4033 474.459 33.2311C474.475 33.0907 474.525 33.0406 474.681 33.0085C475.21 32.899 475.818 32.3947 476.032 31.887C476.09 31.7519 476.135 31.4478 476.136 31.2018C476.138 30.2962 475.593 29.6746 474.53 29.3704ZM507.841 29.4655C507.575 29.3975 507.521 29.3578 507.521 29.2296C507.521 29.0856 507.495 29.0754 507.12 29.0754C506.743 29.0754 506.719 29.0848 506.719 29.2337C506.719 29.3651 506.677 29.3988 506.468 29.4321C505.908 29.5216 505.266 30.1216 505.108 30.7036C505.067 30.854 505.049 31.1662 505.068 31.3975C505.125 32.1159 505.604 32.7042 506.332 32.9493C506.624 33.0476 506.69 33.0986 506.707 33.2403C506.727 33.4033 506.749 33.4122 507.125 33.4122C507.504 33.4122 507.521 33.4051 507.521 33.2433C507.521 33.1504 507.559 33.0637 507.605 33.0505C508.686 32.7408 509.248 32.0368 509.179 31.0781C509.124 30.3207 508.569 29.6519 507.841 29.4655ZM500.579 29.6626C500.468 29.5636 500.22 29.436 500.028 29.3791C499.372 29.1844 498.778 29.3071 498.287 29.739C497.864 30.1106 497.674 30.5679 497.674 31.2104C497.674 31.8525 497.864 32.3104 498.286 32.6811C498.765 33.1019 499.379 33.2365 499.987 33.0538C500.297 32.9607 500.793 32.6322 500.758 32.5432C500.752 32.5278 500.709 32.4721 500.646 32.3983C500.6 32.3435 500.543 32.2788 500.483 32.2129L500.227 31.9316L500.06 32.0881C499.924 32.2155 499.821 32.2446 499.502 32.2446C499.164 32.2446 499.084 32.2192 498.913 32.0554C498.493 31.6537 498.468 30.8565 498.861 30.4281C499.043 30.2301 499.133 30.1871 499.429 30.1587C499.721 30.1307 499.814 30.1502 499.983 30.2745L500.185 30.424L500.482 30.1334L500.78 29.8427L500.579 29.6626ZM477.821 31.7588L477.803 30.5839L477.785 29.409H477.385H476.986V31.2134V33.0178L477.462 32.9981L477.938 32.9785L478.581 31.8835L479.224 30.7885L479.242 31.9002L479.261 33.0119H479.693H480.126V31.2075V29.4031L479.642 29.4228L479.158 29.4424L478.49 30.6006L477.821 31.7588ZM484.18 32.9785L483.531 31.2104L482.882 29.4424L482.439 29.4226C482.03 29.4044 481.992 29.4145 481.939 29.5561C481.682 30.2387 480.728 32.9282 480.728 32.9678C480.728 32.9954 480.927 33.0091 481.171 32.9983L481.613 32.9785L482.026 31.8254L482.438 30.6723L482.829 31.792C483.044 32.4079 483.241 32.9358 483.266 32.9651C483.292 32.9945 483.508 33.0095 483.747 32.9985L484.18 32.9785ZM485.639 31.7066L485.62 30.5578L485.602 29.409H485.169H484.737V31.2104V33.0119H485.221H485.706L486.374 31.8705L487.042 30.7292L487.06 31.8705L487.078 33.0119H487.511H487.944V31.2104V29.409H487.451H486.959L486.299 30.5578L485.639 31.7066ZM492.076 32.9546C492.064 32.9196 491.752 32.1077 491.385 31.1503L490.717 29.4095L490.297 29.4093C489.924 29.409 489.872 29.4256 489.82 29.5591C489.196 31.1591 488.769 32.2602 488.642 32.5949L488.484 33.0119H488.944H489.403L489.514 32.6783L489.625 32.3447H490.276H490.927L491.026 32.6616L491.124 32.9785L491.612 32.9983C491.901 33.0099 492.09 32.9921 492.076 32.9546ZM495.252 31.6636C494.979 30.9189 494.678 30.107 494.584 29.8594L494.413 29.409H493.983C493.576 29.409 493.549 29.4186 493.483 29.5925C493.252 30.1916 492.287 32.9086 492.287 32.9583C492.287 32.9911 492.486 33.0091 492.73 32.9983L493.173 32.9785L493.579 31.824L493.985 30.6695L494.275 31.4904C494.434 31.9419 494.62 32.4614 494.688 32.6449L494.811 32.9785L495.28 32.998L495.749 33.0175L495.252 31.6636ZM504.27 32.0639C504.068 31.5395 503.758 30.7351 503.583 30.2764L503.263 29.4424L502.837 29.424L502.41 29.4056L501.76 31.092C501.531 31.687 501.321 32.2343 501.193 32.5671C501.122 32.7531 501.077 32.8721 501.068 32.8951C501.03 32.9992 501.076 33.0119 501.489 33.0119H501.952L502.051 32.695L502.149 32.378H502.805H503.461L503.572 32.6783L503.683 32.9785L504.16 32.998L504.638 33.0176L504.27 32.0639ZM511.252 31.0253C511.226 30.9987 511.072 30.6317 510.91 30.2096L510.614 29.4424L510.128 29.4226C509.751 29.4072 509.651 29.4221 509.679 29.4893L510.259 30.8682C510.559 31.5791 510.787 32.2021 510.768 32.2527C510.721 32.376 510.399 32.3698 510.259 32.2429C510.156 32.1499 510.124 32.1677 509.897 32.4452C509.615 32.7883 509.639 32.8874 510.042 33.0556C510.575 33.2782 511.21 33.0732 511.496 32.5858C511.648 32.3268 512.8 29.5475 512.8 29.4397C512.8 29.4195 512.6 29.4118 512.355 29.4226L511.91 29.4424L511.605 30.258C511.437 30.7066 511.278 31.0519 511.252 31.0253ZM472.924 31.1052C472.956 30.7208 473.066 30.5465 473.411 30.3338C473.521 30.2658 473.634 30.2101 473.662 30.2099C473.689 30.2098 473.712 30.66 473.712 31.2104C473.712 31.7609 473.694 32.2112 473.672 32.2112C473.502 32.2112 473.174 31.9609 473.047 31.7356C472.925 31.519 472.9 31.3931 472.924 31.1052ZM474.504 32.2112C474.472 32.2112 474.447 31.7609 474.447 31.2104C474.447 30.66 474.472 30.2096 474.504 30.2096C474.535 30.2096 474.663 30.2778 474.788 30.3611C475.218 30.6479 475.365 31.212 475.132 31.6761C475.026 31.8868 474.645 32.2112 474.504 32.2112ZM506.441 32.1001C505.795 31.7235 505.803 30.6544 506.454 30.3265L506.686 30.2099L506.705 31.1865C506.715 31.7237 506.709 32.1775 506.691 32.1952C506.673 32.2128 506.561 32.17 506.441 32.1001ZM507.521 32.2116V31.2104V30.2092L507.738 30.2975C508.073 30.4334 508.256 30.7567 508.256 31.2104C508.256 31.6642 508.073 31.9875 507.738 32.1234L507.521 32.2116ZM502.442 31.5607C502.442 31.5332 502.522 31.2782 502.621 30.9939C502.719 30.7097 502.81 30.4871 502.822 30.4993C502.855 30.532 503.178 31.4912 503.178 31.5557C503.178 31.586 503.013 31.6108 502.811 31.6108C502.609 31.6108 502.443 31.5883 502.442 31.5607ZM489.962 31.3458L490.088 30.9936C490.176 30.7459 490.264 30.5432 490.284 30.5432C490.305 30.5432 490.4 30.7834 490.496 31.077L490.671 31.6108H490.269C489.976 31.6108 489.875 31.5882 489.897 31.5274L489.962 31.3458ZM474.581 36.3353C474.475 36.2367 474.273 36.1242 474.133 36.0855C473.178 35.8208 472.237 36.375 472.041 37.3169C471.788 38.5335 472.699 39.6077 473.85 39.4497C474.196 39.4022 474.781 39.0761 474.781 38.9311C474.781 38.8825 474.678 38.7429 474.552 38.6209L474.323 38.3991L474.142 38.5411C473.928 38.709 473.527 38.7291 473.25 38.5859C472.745 38.3251 472.707 37.2385 473.192 36.9211C473.519 36.7072 473.855 36.7211 474.193 36.9627C474.29 37.0321 474.342 37.0051 474.542 36.7794L474.776 36.5147L474.581 36.3353ZM491.082 37.7156C491.083 36.9201 490.712 36.3517 490.032 36.1095C489.894 36.0603 489.631 36.0202 489.447 36.0202C488.821 36.0202 488.328 36.2918 488.028 36.8026C487.864 37.0814 487.844 37.18 487.844 37.7156C487.845 38.2069 487.872 38.3665 487.993 38.5932C488.406 39.3677 489.43 39.6859 490.214 39.2833C490.771 38.9969 491.081 38.4381 491.082 37.7156ZM509.117 36.7872C509.404 36.501 509.366 36.3918 508.909 36.1792C508.011 35.7617 507.008 36.1705 506.685 37.0859C506.463 37.7135 506.616 38.5249 507.041 38.9728C507.592 39.5544 508.584 39.627 509.158 39.1279L509.401 38.9166L509.134 38.6577L508.868 38.3988L508.687 38.5409C508.563 38.6378 508.41 38.6831 508.207 38.6831C507.959 38.6831 507.872 38.6462 507.69 38.4646C507.165 37.9407 507.415 36.9035 508.096 36.7759C508.257 36.7457 508.403 36.7737 508.606 36.8739L508.89 37.0142L509.117 36.7872ZM477.587 36.8149V36.448V36.081H476.552H475.516V37.7156V39.3503H476.585H477.654V39.0167V38.6831H476.952H476.251V38.3495V38.0159H476.886H477.52V37.6823V37.3487H476.886H476.251V37.0818V36.8149H476.919H477.587ZM480.794 36.9851C480.794 36.6567 480.637 36.3744 480.376 36.2345C480.214 36.1481 479.952 36.1122 479.341 36.093L478.523 36.0673V37.7088V39.3503L479.341 39.3501C479.988 39.3501 480.208 39.3257 480.389 39.2334C480.733 39.0579 480.895 38.7974 480.895 38.4157C480.895 38.1478 480.86 38.0558 480.698 37.8868C480.59 37.7744 480.466 37.6823 480.421 37.6823C480.377 37.6823 480.442 37.5802 480.567 37.4554C480.743 37.2803 480.794 37.1731 480.794 36.9851ZM483.835 36.7816V36.448V36.1144L482.816 36.0959L481.797 36.0775V37.7139V39.3503H482.866H483.935V39.0167V38.6831H483.233H482.532V38.3495V38.0159H483.17H483.808L483.788 37.699L483.768 37.382L483.15 37.3628L482.532 37.3437V37.0817V36.8197L483.183 36.8006L483.835 36.7816ZM487.094 37.1152C487.094 36.686 486.968 36.4638 486.6 36.2478C486.417 36.1398 486.224 36.1099 485.589 36.0907L484.803 36.0669V37.7086V39.3503H485.171H485.538V38.7587V38.1673L486.012 38.1334C486.749 38.0807 487.094 37.7559 487.094 37.1152ZM494.655 38.533C494.629 38.4504 494.428 37.8649 494.208 37.2319L493.809 36.081H493.443C493.151 36.081 493.07 36.1048 493.044 36.1978C493.026 36.2619 492.824 36.8399 492.596 37.4821L492.181 38.6497L491.916 38.6831L491.652 38.7164V39.3503V39.9841L491.97 40.0045L492.287 40.0248V39.6875V39.3503H493.456H494.626V39.6839V40.0175H494.926H495.227V39.3503V38.6831H494.964C494.75 38.6831 494.693 38.6553 494.655 38.533ZM497.978 36.4157C497.874 36.312 497.671 36.1944 497.527 36.1544C497.383 36.1144 496.972 36.0816 496.613 36.0814L495.962 36.081V37.7156V39.3503H496.77C497.687 39.3503 497.965 39.2657 498.174 38.9219C498.415 38.5277 498.258 37.8293 497.904 37.717C497.77 37.6747 497.773 37.6651 497.966 37.4723C498.136 37.3028 498.167 37.22 498.167 36.9381C498.167 36.6609 498.135 36.5726 497.978 36.4157ZM500.004 38.1408L499.986 37.1109L499.968 36.081H499.568H499.169V37.7187V39.3563L499.616 39.3367L500.064 39.3169L500.635 38.3405L501.207 37.3642L501.225 38.3572L501.244 39.3503H501.643H502.042V37.7156V36.081H501.615H501.189L500.596 37.1109L500.004 38.1408ZM503.78 37.3487V36.7148V36.081H503.412H503.045V37.7156V39.3503H503.412H503.78V38.6831V38.0159H504.347H504.915V38.6831V39.3503H505.316H505.717V37.7156V36.081H505.316H504.915V36.7148V37.3487H504.347H503.78ZM510.956 37.282C510.882 37.282 510.862 37.154 510.862 36.6815V36.081H510.495H510.127V37.7156V39.3503H510.495H510.862V38.6514V37.9525L511.079 37.9923C511.525 38.0741 511.767 38.3701 511.936 39.0411L512.014 39.3503H512.407C512.87 39.3503 512.881 39.3205 512.662 38.6698C512.503 38.1998 512.216 37.7528 511.969 37.5909L511.798 37.4793L512.215 36.9125C512.626 36.3555 512.782 36.1673 512.742 36.106C512.716 36.0648 512.6 36.081 512.413 36.081H512.01L511.53 36.6815C511.267 37.0117 511.008 37.282 510.956 37.282ZM479.258 37.4327V37.0905C479.258 36.7486 479.258 36.7482 479.475 36.7491C479.833 36.7506 479.991 36.8202 480.035 36.9953C480.093 37.2233 479.938 37.3562 479.565 37.3981L479.258 37.4327ZM485.538 37.4821V37.1065V36.7308L485.839 36.7647C486.186 36.8037 486.34 36.9074 486.34 37.1014C486.34 37.3381 486.147 37.4821 485.829 37.4821H485.538ZM489.447 38.6831C488.595 38.6831 488.282 37.3447 489.026 36.8796C489.429 36.627 490.003 36.8108 490.188 37.2517C490.475 37.9379 490.089 38.6831 489.447 38.6831ZM496.854 37.4154C496.71 37.4154 496.697 37.3875 496.697 37.0818C496.697 36.7573 496.702 36.7482 496.893 36.7482C497.251 36.7482 497.432 36.8576 497.432 37.0736C497.432 37.2326 497.393 37.2825 497.222 37.3421C497.106 37.3824 496.94 37.4154 496.854 37.4154ZM493.165 37.9825C493.27 37.6156 493.373 37.2703 493.395 37.2152C493.418 37.1593 493.535 37.4513 493.662 37.878C493.786 38.2976 493.877 38.6518 493.864 38.6653C493.851 38.6786 493.645 38.6805 493.407 38.6696L492.975 38.6497L493.165 37.9825ZM479.258 38.6831V38.3495V38.0159H479.563C479.973 38.0159 480.126 38.1069 480.126 38.3495C480.126 38.5921 479.973 38.6831 479.563 38.6831H479.258ZM496.697 38.6831V38.3495V38.0159H497.026C497.378 38.0159 497.566 38.1316 497.566 38.3495C497.566 38.5674 497.378 38.6831 497.026 38.6831H496.697Z" fill="#C9C9C9"/>
</svg>
