<svg width="73" height="87" viewBox="0 0 73 87" fill="none" xmlns="http://www.w3.org/2000/svg">
<path fill-rule="evenodd" clip-rule="evenodd" d="M4.72098 83.3426H29.2505L29.6588 83.3536L30.0884 83.3827L30.5144 83.4301L30.9334 83.4958L31.3488 83.576L31.7535 83.678L32.1547 83.7947L32.5452 83.9259L32.9287 84.0754L33.3015 84.2431L33.6671 84.4217L34.0222 84.615L34.3701 84.8228L34.7039 85.0415L35.0305 85.2748L35.3465 85.5227L35.6518 85.7779L35.9429 86.0477L36.227 86.3284L36.4968 86.6164L36.5003 86.6201L36.5039 86.6164L36.7737 86.3284L37.0542 86.0477L37.3489 85.7816L37.6542 85.5227L37.9702 85.2748L38.2933 85.0415L38.6306 84.8228L38.9749 84.615L39.33 84.4217L39.6957 84.2431L40.072 84.0754L40.4554 83.9259L40.846 83.7947L41.2472 83.678L41.6519 83.576L42.0638 83.4958L42.4863 83.4301L42.9123 83.3827L43.3419 83.3536L43.7502 83.3426H68.2761L68.5779 83.339L68.8406 83.3208L69.0892 83.2916L69.3306 83.2515L69.5614 83.2041L69.785 83.1458L69.9945 83.0765L70.1969 83L70.3922 82.9161L70.5768 82.825L70.7543 82.7265L70.9212 82.6172L71.0845 82.5041L71.2336 82.3838L71.3792 82.2526L71.5212 82.1177L71.6525 81.9682L71.7768 81.8151L71.8975 81.6547L72.0111 81.4834L72.1141 81.3011L72.2135 81.1115L72.3058 80.911L72.391 80.6959L72.4656 80.4735L72.5366 80.2402L72.5934 79.9959L72.6431 79.7371L72.6857 79.4673L72.7141 79.1866L72.7319 78.8913L72.739 78.5559V0.269531H0.261719V78.5559L0.26882 78.8913L0.286572 79.183L0.314975 79.4673L0.354029 79.7371L0.403734 79.9959L0.46409 80.2402L0.531547 80.4735L0.609655 80.6959L0.694864 80.9074L0.787173 81.1115L0.883034 81.3011L0.989544 81.4834L1.10316 81.6547L1.22032 81.8151L1.34813 81.9682L1.4795 82.1177L1.61796 82.2526L1.76353 82.3838L1.91619 82.5041L2.07951 82.6172L2.24638 82.7265L2.42034 82.825L2.60851 82.9161L2.80023 83L3.0026 83.0765L3.21563 83.1458L3.43575 83.2041L3.67007 83.2515L3.90795 83.2916L4.16002 83.3208L4.42275 83.339L4.72098 83.3426Z" fill="#C9C9C9"/>
<path fill-rule="evenodd" clip-rule="evenodd" d="M36.5 87L36.6916 86.8033L36.9585 86.5183L37.2311 86.2455L37.5177 85.9866L37.8161 85.7337L38.124 85.4921L38.4376 85.2656L38.7659 85.0527L39.1017 84.8501L39.4467 84.6624L39.8032 84.4882L40.1698 84.3248L40.5419 84.1798L40.9216 84.0522L41.3134 83.9383L41.7069 83.839L42.1071 83.7611L42.5194 83.697L42.9346 83.6509L43.3535 83.6224L43.7532 83.6117H68.2788L68.5879 83.608L68.8639 83.5888L69.1244 83.5582L69.3813 83.5155L69.6186 83.4666L69.8567 83.4045L70.0843 83.3293L70.2971 83.2485L70.4986 83.1618L70.6949 83.0649L70.8862 82.9588L71.0665 82.8406L71.2377 82.722L71.4 82.5911L71.556 82.4504L71.7066 82.3072L71.8528 82.1409L71.9831 81.98L72.1085 81.8131L72.2319 81.627L72.3438 81.4289L72.4463 81.2331L72.5447 81.0194L72.6353 80.7906L72.7147 80.5539L72.7883 80.3117L72.8496 80.048L72.9008 79.7801L72.9445 79.5027L72.9748 79.203L72.993 78.897L73 78.5557L72.9999 2.39271e-06H0V78.5615L0.00739622 78.9079L0.0260189 79.2103L0.0552383 79.5008L0.0960819 79.7829L0.148355 80.0551L0.213048 80.3169L0.282862 80.5576L0.365598 80.7932L0.457384 81.021L0.554804 81.2358L0.654614 81.4326L0.769151 81.6287L0.890374 81.8115L1.01626 81.9838L1.15398 82.1488L1.29222 82.306L1.44537 82.4552L1.59755 82.5921L1.76345 82.7229L1.93883 82.8442L2.11284 82.9582L2.30138 83.0648L2.50596 83.1639L2.70372 83.2502L2.91783 83.3312L3.14334 83.4045L3.37762 83.4666L3.62749 83.5172L3.87188 83.5582L4.14208 83.5895L4.41205 83.608L4.72061 83.6117L29.2467 83.6117L29.6464 83.6224L30.0654 83.6509L30.4804 83.697L30.8893 83.7611L31.2932 83.8391L31.6866 83.9383L32.0783 84.0522L32.458 84.1798L32.8297 84.3247L33.1928 84.488L33.5497 84.6624L33.8952 84.8504L34.234 85.0527L34.5588 85.2656L34.8764 85.4925L35.1846 85.7343L35.4816 85.9825L35.7647 86.2448L36.0421 86.519L36.3119 86.807L36.5 87ZM36.5 86.2322L36.5853 86.1411L36.8765 85.8495L37.1762 85.5788L37.4878 85.3145L37.8115 85.0603L38.1482 84.8169L38.491 84.5946L38.8425 84.3823L39.2076 84.1834L39.5833 83.9995L39.9735 83.8255L40.3683 83.6716L40.7646 83.5384L41.1758 83.4186L41.5962 83.3124L42.0149 83.2309L42.4469 83.1636L42.8839 83.1147L43.3243 83.0846L43.743 83.0732L68.2758 83.0731L68.5672 83.0695L68.8167 83.0522L69.0532 83.0245L69.2839 82.9862L69.5034 82.9411L69.7126 82.8865L69.9091 82.8215L70.1012 82.7489L70.285 82.67L70.458 82.5845L70.6217 82.4938L70.7751 82.3933L70.7805 82.3897L70.9305 82.2858L71.0665 82.176L71.2017 82.0543L71.2067 82.0497L71.335 81.9277L71.455 81.7911L71.5729 81.6459L71.6858 81.4958L71.7896 81.3392L71.8857 81.1691L71.98 80.9894L72.0662 80.8021L72.146 80.6007L72.2169 80.3891L72.2841 80.1682L72.3377 79.9381L72.3855 79.689L72.4262 79.4314L72.4532 79.1641L72.4703 78.8798L72.4772 78.5557V0.538622H0.5227V78.5527L0.529622 78.8797L0.546713 79.1605L0.573973 79.4334L0.611238 79.6908L0.658374 79.9363L0.715691 80.1683L0.779494 80.3889L0.852975 80.5981L0.933736 80.7986L1.02126 80.9921L1.11071 81.169L1.2092 81.3376L1.3152 81.4974L1.42364 81.6459L1.54372 81.7898L1.66604 81.9289L1.79347 82.0531L1.92877 82.1751L2.0682 82.2849L2.22214 82.3915L2.37917 82.4944L2.53857 82.5846L2.71483 82.67L2.89601 82.7492L3.08663 82.8213L3.28718 82.8865L3.49314 82.9411L3.71597 82.9862L3.94327 83.0245L4.18302 83.0522L4.43272 83.0695L4.72215 83.0731H29.2501L29.6652 83.0841L30.1052 83.1138L30.5421 83.1621L30.9723 83.2293L31.4036 83.3124L31.8153 83.4162L32.2253 83.5353L32.6317 83.6716L33.0269 83.8257L33.4056 83.996L33.7787 84.1782L34.1439 84.3766L34.5008 84.5895L34.8437 84.814L35.179 85.0532L35.5044 85.3082L35.8212 85.5728L36.1173 85.8472L36.4075 86.1338L36.5 86.2322Z" fill="#C9C9C9"/>
<path d="M15.6319 65.8286H16.2035V66.0947H15.6319V65.8286ZM35.9471 83.8745H36.8702V84.137H35.9471V83.8745ZM34.9956 83.0907H37.6655V83.3532H34.9956V83.0907ZM33.7388 82.3032H38.8903V82.5694H33.7388V82.3032ZM31.463 81.5194H41.2726V81.7856H31.463V81.5194ZM3.80915 80.7356H69.5336V80.9981H3.80915V80.7356ZM2.99256 79.9518H70.1939V80.2143H2.99256V79.9518ZM2.54167 79.1643H70.5419V79.4305H2.54167V79.1643ZM2.3251 78.3805H70.6981V78.6467H2.3251V78.3805ZM2.28249 77.5967H70.7123V77.8629H2.28249V77.5967ZM2.27539 76.8129H70.7123V77.0754H2.27539V76.8129ZM2.27894 76.0291H70.7123V76.2916H2.27894V76.0291ZM2.27894 75.2453H70.7123V75.5078H2.27894V75.2453ZM2.28249 74.4578H70.7123V74.724H2.28249V74.4578ZM2.28604 73.674H70.7123V73.9402H2.28604V73.674ZM2.28959 72.8902H70.7123V73.1527H2.28959V72.8902ZM2.29314 72.1064H70.7123V72.3689H2.29314V72.1064ZM2.29314 71.3226H70.7123V71.5851H2.29314V71.3226ZM2.29669 70.5351H70.7123V70.8013H2.29669V70.5351ZM2.30024 69.7513H70.7123V70.0174H2.30024V69.7513ZM2.30024 68.9675H8.08734V69.2336H2.30024V68.9675ZM9.76667 68.9675H35.0737V69.2336H9.76667V68.9675ZM37.772 68.9675H63.1039V69.2336H37.772V68.9675ZM64.7335 68.9675H70.7123V69.2336H64.7335V68.9675ZM2.30024 68.1837H6.74531V68.4462H2.30024V68.1837ZM11.4247 68.1837H20.1977V68.4462H11.4247V68.1837ZM25.0688 68.1837H33.6251V68.4462H25.0688V68.1837ZM39.217 68.1837H47.7769V68.4462H39.217V68.1837ZM52.6445 68.1837H61.421V68.4462H52.6445V68.1837ZM66.0968 68.1837H70.7123V68.4462H66.0968V68.1837ZM2.28959 67.3999H6.09914V67.6624H2.28959V67.3999ZM12.3797 67.3999H19.2675V67.6624H12.3797V67.3999ZM26.0451 67.3999H32.7731V67.6624H26.0451V67.3999ZM40.0691 67.3999H46.797V67.6624H40.0691V67.3999ZM53.5747 67.3999H60.4624V67.6624H53.5747V67.3999ZM66.743 67.3999H70.7123V67.6624H66.743V67.3999ZM2.52747 66.6124H5.36776V66.8786H2.52747V66.6124ZM13.3667 66.6124H18.3657V66.8786H13.3667V66.6124ZM27.0676 66.6124H31.8358V66.8786H27.0676V66.6124ZM41.0064 66.6124H45.7781V66.8786H41.0064V66.6124ZM54.4765 66.6124H59.4754V66.8786H54.4765V66.6124ZM67.4957 66.6124H70.4673V66.8786H67.4957V66.6124ZM56.6386 65.8286H57.2138V66.0947H56.6386V65.8286Z" fill="#030035"/>
<path d="M32.748 57.1594V41.8222H33.0072V57.1594H32.748ZM32.748 39.0771V37.8922H33.0072V39.0771H32.748ZM32.748 31.4285V30.2437H33.0072V31.4285H32.748ZM32.748 27.4985V12.9233H33.0072V27.4985H32.748ZM13.7109 36.7876V34.8518H13.9666V36.7876H13.7109ZM14.4743 38.1656V32.6316H14.7334V38.1656H14.4743ZM15.2376 38.8437V30.94H15.4968V38.8437H15.2376ZM16.0009 39.2666V29.1937H16.2601V39.2666H16.0009ZM16.7678 46.7037V43.8966H17.0234V46.7037H16.7678ZM16.7678 39.4927V26.8788H17.0234V39.4927H16.7678ZM17.5311 47.8193V42.5842H17.7868V47.8193H17.5311ZM17.5311 39.5583V23.3316H17.7868V39.5583H17.5311ZM18.2945 48.5083V41.9024H18.5536V48.5083H18.2945ZM18.2945 39.5109V20.7468H18.5536V39.5109H18.2945ZM19.0578 49.0552V41.4394H19.317V49.0552H19.0578ZM19.0578 39.3796V19.5437H19.317V39.3796H19.0578ZM19.8211 49.54V41.0822H20.0803V49.54H19.8211ZM19.8211 39.1791V18.9422H20.0803V39.1791H19.8211ZM20.588 49.9994V40.7978H20.8436V49.9994H20.588ZM20.588 38.9349V18.6323H20.8436V38.9349H20.588ZM21.3513 50.4514V40.5535H21.607V50.4514H21.3513ZM21.3513 38.6542V18.5084H21.607V38.6542H21.3513ZM22.1147 50.9108V40.3384H22.3738V50.9108H22.1147ZM22.1147 38.3516V18.5266H22.3738V38.3516H22.1147ZM22.878 51.3957V40.1416H23.1372V51.3957H22.878ZM22.878 38.038V18.6834H23.1372V38.038H22.878ZM23.6413 51.9352V39.9484H23.9005V51.9352H23.6413ZM23.6413 37.7318V18.9969H23.9005V37.7318H23.6413ZM24.4082 52.5367V39.7406H24.6638V52.5367H24.4082ZM24.4082 37.4547V19.5547H24.6638V37.4547H24.4082ZM25.1715 53.2039V39.4999H25.4272V53.2039H25.1715ZM25.1715 37.2469V20.4296H25.4272V37.2469H25.1715ZM25.9349 53.9221V39.1718H26.194V53.9221H25.9349ZM25.9349 37.2032V21.5561H26.194V37.2032H25.9349ZM25.9349 17.8923V15.4679H26.194V17.8923H25.9349ZM26.6982 54.6621V38.3042H26.9574V54.6621H26.6982ZM26.6982 38.0016V22.8248H26.9574V38.0016H26.6982ZM26.6982 19.3542V13.9513H26.9574V19.3542H26.6982ZM27.4615 55.3949V24.1044H27.7207V55.3949H27.4615ZM27.4615 20.3749V13.266H27.7207V20.3749H27.4615ZM28.2284 56.0766V25.2419H28.484V56.0766H28.2284ZM28.2284 21.2973V12.916H28.484V21.2973H28.2284ZM28.9917 56.6672V38.2349H29.2474V56.6672H28.9917ZM28.9917 35.7376V33.5831H29.2474V35.7376H28.9917ZM28.9917 31.0858V26.084H29.2474V31.0858H28.9917ZM28.9917 22.1868V12.7483H29.2474V22.1868H28.9917ZM29.7551 57.1266V38.4609H30.0142V57.1266H29.7551ZM29.7551 35.5153V33.8055H30.0142V35.5153H29.7551ZM29.7551 30.8598V26.4814H30.0142V30.8598H29.7551ZM29.7551 23.1128V12.6899H30.0142V23.1128H29.7551ZM30.5184 57.4182V38.2313H30.7776V57.4182H30.5184ZM30.5184 35.7413V33.5794H30.7776V35.7413H30.5184ZM30.5184 31.0895V26.3064H30.7776V31.0895H30.5184ZM30.5184 24.1773V12.7045H30.7776V24.1773H30.5184ZM31.2817 57.5167V41.5561H31.5409V57.5167H31.2817ZM31.2817 39.3432V29.9775H31.5409V39.3432H31.2817ZM31.2817 27.7646V12.7592H31.5409V27.7646H31.2817ZM33.5113 56.6782V41.1077H33.7705V56.6782H33.5113ZM33.5113 39.7916V38.6177H33.7705V39.7916H33.5113ZM33.5113 30.703V29.5291H33.7705V30.703H33.5113ZM33.5113 28.2131V13.0144H33.7705V28.2131H33.5113ZM34.2782 55.898V39.0953H34.5339V55.898H34.2782ZM34.2782 30.2254V13.0983H34.5339V30.2254H34.2782ZM35.0416 52.5294V42.3946H35.2972V52.5294H35.0416ZM35.0416 41.2936V39.3942H35.2972V41.2936H35.0416ZM35.0416 29.9229V28.0271H35.2972V29.9229H35.0416ZM35.0416 26.9261V13.1712H35.2972V26.9261H35.0416ZM35.8049 45.0194V43.1966H36.0641V45.0194H35.8049ZM35.8049 40.4916V39.5546H36.0641V40.4916H35.8049ZM35.8049 29.7661V28.8292H36.0641V29.7661H35.8049ZM35.8049 26.1241V13.2113H36.0641V26.1241H35.8049ZM36.5682 44.7898V43.3023H36.8274V44.7898H36.5682ZM36.5682 40.3858V39.5838H36.8274V40.3858H36.5682ZM36.5682 29.7369V28.9349H36.8274V29.7369H36.5682ZM36.5682 26.0184V13.2186H36.8274V26.0184H36.5682ZM37.3315 45.3621V42.9341H37.5907V45.3621H37.3315ZM37.3315 40.7504V39.489H37.5907V40.7504H37.3315ZM37.3315 29.8317V28.5703H37.5907V29.8317H37.3315ZM37.3315 26.3866V13.193H37.5907V26.3866H37.3315ZM38.0984 54.7533V39.2593H38.354V54.7533H38.0984ZM38.0984 30.0614V13.1347H38.354V30.0614H38.0984ZM38.8618 56.2626V38.8729H39.1174V56.2626H38.8618ZM38.8618 30.4478V13.0582H39.1174V30.4478H38.8618ZM39.6251 56.8969V41.6071H39.8843V56.8969H39.6251ZM39.6251 39.2921V38.2823H39.8843V39.2921H39.6251ZM39.6251 31.0384V30.0286H39.8843V31.0384H39.6251ZM39.6251 27.7136V12.967H39.8843V27.7136H39.6251ZM40.3884 57.2906V41.917H40.6476V57.2906H40.3884ZM40.3884 38.9823V37.3563H40.6476V38.9823H40.3884ZM40.3884 31.9644V30.3385H40.6476V31.9644H40.3884ZM40.3884 27.4037V12.8722H40.6476V27.4037H40.3884ZM41.1517 57.4875V41.7675H41.4109V57.4875H41.1517ZM41.1517 39.1317V35.0778H41.4109V39.1317H41.1517ZM41.1517 34.2429V30.189H41.4109V34.2429H41.1517ZM41.1517 27.5532V12.7884H41.4109V27.5532H41.1517ZM41.9186 57.4948V40.7468H42.1742V57.4948H41.9186ZM41.9186 40.1525V37.9651H42.1742V40.1525H41.9186ZM41.9186 36.0074V33.3133H42.1742V36.0074H41.9186ZM41.9186 31.3556V29.1682H42.1742V31.3556H41.9186ZM41.9186 28.574V26.0147H42.1742V28.574H41.9186ZM41.9186 24.8846V12.7228H42.1742V24.8846H41.9186ZM42.6819 57.3016V38.4245H42.9376V57.3016H42.6819ZM42.6819 35.5481V33.7727H42.9376V35.5481H42.6819ZM42.6819 30.8962V26.485H42.9376V30.8962H42.6819ZM42.6819 23.5649V12.6899H42.9376V23.5649H42.6819ZM43.4453 56.9261V38.3844H43.7045V56.9261H43.4453ZM43.4453 35.5918V33.7289H43.7045V35.5918H43.4453ZM43.4453 30.9363V26.2991H43.7045V30.9363H43.4453ZM43.4453 22.5696V12.7155H43.7045V22.5696H43.4453ZM44.2086 56.4011V37.761H44.4678V56.4011H44.2086ZM44.2086 36.2116V33.1091H44.4678V36.2116H44.2086ZM44.2086 31.5598V25.6283H44.4678V31.5598H44.2086ZM44.2086 21.6473V12.8321H44.4678V21.6473H44.2086ZM44.9719 55.7595V24.6112H45.2311V55.7595H44.9719ZM44.9719 20.7249V13.0983H45.2311V20.7249H44.9719ZM45.7388 55.0486V23.3899H45.9944V55.0486H45.7388ZM45.7388 19.7515V13.6196H45.9944V19.7515H45.7388ZM46.5021 54.3085V39.1427H46.7578V54.3085H46.5021ZM46.5021 37.3563V22.1066H46.7578V37.3563H46.5021ZM46.5021 18.5849V14.6622H46.7578V18.5849H46.5021ZM47.2655 53.5757V39.5765H47.5247V53.5757H47.2655ZM47.2655 37.1558V20.8963H47.5247V37.1558H47.2655ZM48.0288 52.8758V39.8572H48.288V52.8758H48.0288ZM48.0288 37.2433V19.8828H48.288V37.2433H48.0288ZM48.7921 52.2414V40.0796H49.0513V52.2414H48.7921ZM48.7921 37.4438V19.1828H49.0513V37.4438H48.7921ZM49.559 51.6691V40.2765H49.8146V51.6691H49.559ZM49.559 37.7099V18.7854H49.8146V37.7099H49.559ZM50.3223 51.1587V40.4587H50.578V51.1587H50.3223ZM50.3223 38.0089V18.5704H50.578V38.0089H50.3223ZM51.0857 50.6884V40.6374H51.3448V50.6884H51.0857ZM51.0857 38.3261V18.4974H51.3448V38.3261H51.0857ZM51.849 50.2363V40.8306H52.1082V50.2363H51.849ZM51.849 38.6396V18.5631H52.1082V38.6396H51.849ZM52.6123 49.7843V41.042H52.8715V49.7843H52.6123ZM52.6123 38.9422V18.7927H52.8715V38.9422H52.6123ZM53.3792 49.314V41.2972H53.6348V49.314H53.3792ZM53.3792 39.2192V19.2521H53.6348V39.2192H53.3792ZM54.1425 48.8036V41.6253H54.3982V48.8036H54.1425ZM54.1425 39.4416V20.1562H54.3982V39.4416H54.1425ZM54.9059 48.2057V42.1394H55.165V48.2057H54.9059ZM54.9059 39.5838V22.0592H55.165V39.5838H54.9059ZM55.6692 47.3891V43.069H55.9284V47.3891H55.6692ZM55.6692 39.5729V25.559H55.9284V39.5729H55.6692ZM56.4325 39.3906V28.3844H56.6917V39.3906H56.4325ZM57.1994 39.0369V30.2619H57.455V39.0369H57.1994ZM57.9627 38.4792V31.9389H58.2184V38.4792H57.9627ZM58.7261 37.524V33.7872H58.9817V37.524H58.7261ZM32.0486 57.4182V41.9097H32.3042V57.4182H32.0486ZM32.0486 38.9896V36.7985H32.3042V38.9896H32.0486ZM32.0486 32.5222V30.3312H32.3042V32.5222H32.0486ZM32.0486 27.411V12.8394H32.3042V27.411H32.0486Z" fill="#030035"/>
</svg>
