<svg width="25" height="25" viewBox="0 0 25 25" fill="none" xmlns="http://www.w3.org/2000/svg">
<g clip-path="url(#clip0_387_905)">
<path fill-rule="evenodd" clip-rule="evenodd" d="M4.16669 0C1.86549 0 0 1.86549 0 4.16669V20.8335C0 23.1347 1.86549 25.0001 4.16669 25.0001H14.5883C16.8895 25.0001 18.755 23.1347 18.755 20.8335V14.881C18.755 14.5523 18.4885 14.2858 18.1598 14.2858C17.831 14.2858 17.5645 14.5523 17.5645 14.881V20.8335C17.5645 22.4772 16.232 23.8097 14.5883 23.8097H4.16669C2.52298 23.8097 1.19048 22.4772 1.19048 20.8335V4.16669C1.19048 2.52298 2.52298 1.19048 4.16669 1.19048H14.5883C16.232 1.19048 17.5645 2.52298 17.5645 4.16669V10.1191C17.5645 10.4479 17.831 10.7143 18.1598 10.7143C18.4885 10.7143 18.755 10.4479 18.755 10.1191V4.16669C18.755 1.86549 16.8895 0 14.5883 0H4.16669ZM21.9684 9.46012C21.736 9.22766 21.3591 9.22766 21.1266 9.46012C20.8942 9.69258 20.8942 10.0695 21.1266 10.3019L22.9676 12.1429H11.7856C11.4568 12.1429 11.1903 12.4094 11.1903 12.7382C11.1903 13.0669 11.4568 13.3334 11.7856 13.3334H22.9676L21.1266 15.1744C20.8942 15.4069 20.8942 15.7838 21.1266 16.0162C21.3591 16.2487 21.736 16.2487 21.9684 16.0162L24.8256 13.1591C25.058 12.9266 25.058 12.5497 24.8256 12.3173L21.9684 9.46012Z" fill="white"/>
</g>
<defs>
<clipPath id="clip0_387_905">
<rect width="25" height="25" fill="white"/>
</clipPath>
</defs>
</svg>
