<svg width="20" height="25" viewBox="0 0 20 25" fill="none" xmlns="http://www.w3.org/2000/svg">
<path fill-rule="evenodd" clip-rule="evenodd" d="M19.5977 6.125C19.6499 6.03372 19.6457 5.91108 19.5579 5.82322L15.0186 1.28033C14.5465 0.807856 13.7393 1.14248 13.7393 1.81066V5C13.7393 5.49478 14.0265 5.92241 14.4432 6.125C14.6079 6.20508 14.7928 6.25 14.9883 6.25H19.3813C19.4797 6.25 19.5564 6.19735 19.5977 6.125ZM16.969 5L14.9883 3.01777V5H16.969ZM13.7393 7.375C13.0494 7.375 12.4902 6.81537 12.4902 6.125V0H3.74707C1.6774 0 0 1.67896 0 3.75V21.25C0 23.321 1.6774 25 3.74707 25H16.2529C18.3226 25 20 23.321 20 21.25V7.375H13.7393ZM18.751 8.625V21.25C18.751 22.6307 17.6327 23.75 16.2529 23.75H3.74707C2.36727 23.75 1.24902 22.6307 1.24902 21.25V3.75C1.24902 2.36926 2.36727 1.25 3.74707 1.25H11.2412V6.125C11.2412 7.50568 12.3595 8.625 13.7393 8.625H18.751Z" fill="white"/>
</svg>
