<svg width="25" height="26" viewBox="0 0 25 26" fill="none" xmlns="http://www.w3.org/2000/svg">
<g clip-path="url(#clip0_387_901)">
<path fill-rule="evenodd" clip-rule="evenodd" d="M18.2354 11.9616C16.9664 13.8022 14.8647 15 12.5 15C9.56093 15 7.02821 13.1497 5.99545 10.5146C5.72328 9.75422 5.57471 8.93265 5.57471 8.07547C5.57471 4.1678 8.6624 1 12.4713 1C16.2801 1 19.3678 4.1678 19.3678 8.07547C19.3678 9.51075 18.9513 10.8462 18.2354 11.9616ZM8.47472 15.1872C7.26177 14.4976 5.72505 14.2104 4.68433 15.1397C1.82845 17.6899 0 21.6073 0 26H25C25 21.6073 23.1715 17.6899 20.3157 15.1397C19.2749 14.2104 17.7382 14.4976 16.5253 15.1872C15.3346 15.8641 13.9617 16.25 12.5 16.25C11.0383 16.25 9.66539 15.8641 8.47472 15.1872Z" fill="white"/>
</g>
<defs>
<clipPath id="clip0_387_901">
<rect width="25" height="24.5681" fill="white" transform="translate(0 0.867188)"/>
</clipPath>
</defs>
</svg>
