<svg width="25" height="25" viewBox="0 0 25 25" fill="none" xmlns="http://www.w3.org/2000/svg">
<g clip-path="url(#clip0_387_899)">
<path fill-rule="evenodd" clip-rule="evenodd" d="M4.76671 1.07144C4.76671 0.479565 5.24654 0 5.83821 0H19.1618C19.7536 0 20.2333 0.47973 20.2333 1.07151V2.38113H23.6906C24.4078 2.38113 24.9986 2.95969 24.9999 3.68458C25.003 5.40452 24.9166 7.99542 23.7533 10.6006C22.7512 12.8447 21.0942 14.5628 19.0795 15.1001C18.1153 15.3572 17.5252 15.4641 17.0625 15.4851C16.931 15.9455 16.8315 16.3767 16.7619 16.7257C18.7324 17.0566 20.244 18.7686 20.244 20.8349V23.6922C20.244 24.4155 19.6577 25.0018 18.9344 25.0018H6.07633C5.35305 25.0018 4.76671 24.4155 4.76671 23.6922V20.8349C4.76671 18.7706 6.26777 17.0569 8.23793 16.7257C8.16842 16.3767 8.06897 15.9455 7.93746 15.4851C7.47478 15.4641 6.88473 15.3572 5.92047 15.1001C3.90578 14.5628 2.24883 12.8447 1.24675 10.6006C0.0834084 7.99542 -0.00299612 5.40452 7.46499e-05 3.68458C0.00136885 2.95969 0.59223 2.38113 1.3094 2.38113H4.76671V1.07144ZM4.76671 3.57169H1.3094C1.2412 3.57169 1.19074 3.62622 1.19064 3.6867C1.18763 5.3705 1.27768 7.74998 2.33385 10.1152C3.24354 12.1524 4.67023 13.5345 6.22723 13.9497C6.80017 14.1025 7.20882 14.1924 7.51612 14.2426C7.48941 14.1762 7.46206 14.1103 7.43408 14.045C7.29191 13.7133 7.08136 13.3316 6.83981 12.8937C5.99353 11.3596 4.76671 9.13565 4.76671 5.95282V3.57169ZM9.43928 16.6679C9.34278 16.1509 9.18019 15.4407 8.94418 14.7011C8.82574 14.3299 8.68763 13.9476 8.52838 13.576C8.3341 13.1227 8.07943 12.6586 7.80594 12.1602C6.96962 10.636 5.95727 8.79109 5.95727 5.95282V1.19056H19.0427V5.95282C19.0427 8.79108 18.0304 10.636 17.1941 12.1602C16.9206 12.6586 16.6659 13.1227 16.4716 13.576C16.3124 13.9476 16.1743 14.3299 16.0558 14.7011C15.8198 15.4406 15.6571 16.1508 15.5605 16.6679H9.43928ZM8.93368 17.8584C7.28986 17.8584 5.95727 19.191 5.95727 20.8349V23.6922C5.95727 23.758 6.01057 23.8113 6.07633 23.8113H18.9344C19.0002 23.8113 19.0535 23.758 19.0535 23.6922V20.8349C19.0535 19.1934 17.7123 17.8584 16.0661 17.8584H8.93368ZM17.4839 14.2426C17.7912 14.1924 18.1998 14.1025 18.7728 13.9497C20.3298 13.5345 21.7565 12.1524 22.6661 10.1152C23.7223 7.74998 23.8124 5.3705 23.8094 3.6867C23.8093 3.62622 23.7588 3.57169 23.6906 3.57169H20.2333V5.95282C20.2333 9.13565 19.0065 11.3596 18.1602 12.8937C17.9186 13.3316 17.7081 13.7133 17.5659 14.045C17.5379 14.1103 17.5106 14.1762 17.4839 14.2426Z" fill="white"/>
</g>
<defs>
<clipPath id="clip0_387_899">
<rect width="25" height="25" fill="white"/>
</clipPath>
</defs>
</svg>
