<svg width="50" height="50" viewBox="0 0 50 50" fill="none" xmlns="http://www.w3.org/2000/svg">
<path fill-rule="evenodd" clip-rule="evenodd" d="M24.6458 4.75849C21.8624 2.94185 18.6139 2.35064 16.431 2.38213C16.4206 2.38228 16.4102 2.38229 16.3998 2.38217C14.052 2.35435 10.5078 3.02483 7.58614 5.08883C4.72767 7.10818 2.38095 10.5138 2.38095 16.1987C2.38095 20.8177 3.93016 23.9396 6.01206 26.045C8.12046 28.1773 10.8554 29.3453 13.3106 29.8763C14.4637 30.1256 15.5334 30.2294 16.4152 30.2316H28.8933C28.7887 30.0067 28.6866 29.7721 28.5894 29.5306C28.1371 28.4069 27.7412 27.0149 27.7412 25.6498C27.7412 24.8525 27.9582 24.1493 28.2192 23.5131C28.3595 23.1713 28.5517 22.765 28.7395 22.3679C28.8634 22.1061 28.9853 21.8482 29.0893 21.6155C29.6632 20.3304 30.2303 18.7121 30.2303 16.1987C30.2303 15.5943 30.2043 15.0167 30.1547 14.465C29.7117 9.53219 27.3788 6.54219 24.6458 4.75849ZM32.3985 13.168C31.6535 8.08566 29.0392 4.78269 25.9472 2.76463C22.6977 0.643777 18.969 -0.0327042 16.4123 0.00120408C13.6858 -0.0280268 9.62724 0.731756 6.21236 3.14418C2.72774 5.60587 0 9.73381 0 16.1987C0 21.4102 1.7728 25.1441 4.31902 27.7191C6.55837 29.9838 9.33449 31.292 11.8685 31.9754V41.1978C11.8685 41.8553 12.4015 42.3883 13.059 42.3883H31.2044V48.8095C31.2044 49.2613 31.4601 49.6741 31.8646 49.8754C32.269 50.0766 32.7526 50.0315 33.1129 49.759L42.8591 42.3883H48.3758C49.0333 42.3883 49.5663 41.8553 49.5663 41.1978V14.3585C49.5663 13.701 49.0333 13.168 48.3758 13.168H32.3985ZM14.2494 32.4574V40.0073H32.3948C33.0523 40.0073 33.5853 40.5403 33.5853 41.1978V46.4166L41.7415 40.2483C41.9482 40.0919 42.2004 40.0073 42.4596 40.0073H47.1853V15.5489H32.6021C32.6082 15.763 32.6113 15.9796 32.6113 16.1987C32.6113 19.1321 31.9339 21.0849 31.2632 22.5865C31.1024 22.9465 30.9643 23.236 30.8399 23.4967C30.6852 23.8209 30.5517 24.1008 30.422 24.4169C30.2163 24.9181 30.1222 25.2926 30.1222 25.6498C30.1222 26.5933 30.4057 27.6666 30.7981 28.6415C31.1919 29.6198 31.6461 30.3787 31.888 30.6867C32.1695 31.0451 32.2218 31.5327 32.0225 31.9426C31.8233 32.3524 31.4076 32.6126 30.9519 32.6126H16.4139L16.411 32.6126C15.7526 32.611 15.0234 32.5625 14.2494 32.4574ZM11.8071 9.11524C11.0234 10.2365 10.8223 11.623 10.8912 12.5375C10.9405 13.1932 10.449 13.7647 9.79339 13.814C9.13776 13.8634 8.56626 13.3719 8.51691 12.7163C8.41741 11.3942 8.68526 9.42574 9.85559 7.75126C11.074 6.00798 13.173 4.72659 16.4139 4.72659C19.6548 4.72659 21.7537 6.00798 22.9722 7.75126C24.1425 9.42574 24.4103 11.3942 24.3108 12.7163C24.308 12.754 24.3034 12.7915 24.2969 12.8287C24.079 14.0956 23.4502 15.9641 22.2352 17.5458C21.1898 18.9067 19.67 20.0969 17.6043 20.4328V23.5214C17.6043 24.1788 17.0714 24.7118 16.4139 24.7118C15.7564 24.7118 15.2234 24.1788 15.2234 23.5214V19.3367C15.2234 18.6793 15.7564 18.1463 16.4139 18.1463C18.1748 18.1463 19.4364 17.2809 20.347 16.0953C21.2616 14.9047 21.764 13.4523 21.9404 12.4819C21.9971 11.5674 21.7886 10.214 21.0206 9.11524C20.285 8.06276 18.9449 7.10754 16.4139 7.10754C13.8829 7.10754 12.5427 8.06276 11.8071 9.11524ZM33.477 18.6513C33.477 17.9938 34.01 17.4608 34.6675 17.4608H44.9487C45.6062 17.4608 46.1392 17.9938 46.1392 18.6513C46.1392 19.3088 45.6062 19.8418 44.9487 19.8418H34.6675C34.01 19.8418 33.477 19.3088 33.477 18.6513ZM31.2044 25.1086C31.2044 24.4512 31.7373 23.9182 32.3948 23.9182H44.9487C45.6062 23.9182 46.1392 24.4512 46.1392 25.1086C46.1392 25.7661 45.6062 26.2991 44.9487 26.2991H32.3948C31.7373 26.2991 31.2044 25.7661 31.2044 25.1086ZM16.4139 25.8301C17.0714 25.8301 17.6043 26.3631 17.6043 27.0206V28.0307C17.6043 28.6881 17.0714 29.2211 16.4139 29.2211C15.7564 29.2211 15.2234 28.6881 15.2234 28.0307V27.0206C15.2234 26.3631 15.7564 25.8301 16.4139 25.8301ZM33.477 31.4221C33.477 30.7646 34.01 30.2316 34.6675 30.2316H44.9487C45.6062 30.2316 46.1392 30.7646 46.1392 31.4221C46.1392 32.0796 45.6062 32.6126 44.9487 32.6126H34.6675C34.01 32.6126 33.477 32.0796 33.477 31.4221ZM15.2234 36.905C15.2234 36.2475 15.7564 35.7145 16.4139 35.7145H44.9487C45.6062 35.7145 46.1392 36.2475 46.1392 36.905C46.1392 37.5625 45.6062 38.0954 44.9487 38.0954H16.4139C15.7564 38.0954 15.2234 37.5625 15.2234 36.905Z" fill="white"/>
</svg>
