<svg width="41" height="50" viewBox="0 0 41 50" fill="none" xmlns="http://www.w3.org/2000/svg">
<path fill-rule="evenodd" clip-rule="evenodd" d="M39.5723 12.25C39.6776 12.0674 39.6693 11.8222 39.492 11.6464L30.326 2.56066C29.3727 1.61571 27.7428 2.28496 27.7428 3.62132V10C27.7428 10.9896 28.3227 11.8448 29.1641 12.25C29.4967 12.4102 29.8702 12.5 30.2648 12.5H39.1353C39.334 12.5 39.4889 12.3947 39.5723 12.25ZM34.2643 10L30.2648 6.03553V10H34.2643ZM27.7428 14.75C26.3497 14.75 25.2207 13.6307 25.2207 12.25V0H7.56621C3.38706 0 0 3.35791 0 7.5V42.5C0 46.6421 3.38706 50 7.56621 50H32.8184C36.9976 50 40.3846 46.6421 40.3846 42.5V14.75H27.7428ZM37.8625 17.25V42.5C37.8625 45.2615 35.6046 47.5 32.8184 47.5H7.56621C4.78007 47.5 2.52207 45.2615 2.52207 42.5V7.5C2.52207 4.73852 4.78007 2.5 7.56621 2.5H22.6986V12.25C22.6986 15.0114 24.9567 17.25 27.7428 17.25H37.8625Z" fill="white"/>
</svg>
