<svg width="51" height="18" viewBox="0 0 51 18" fill="none" xmlns="http://www.w3.org/2000/svg">
<path d="M8.66909 2.09199C12.2979 2.09199 15.323 5.23126 15.323 8.99993C15.323 12.7673 12.2992 15.9079 8.66909 15.9079C5.04028 15.9079 2.01514 12.7686 2.01514 8.99993C2.01641 5.23261 5.04025 2.09199 8.66909 2.09199ZM8.66909 0C3.83003 0 0 3.97623 0 9C0 14.0238 3.83003 18 8.66909 18C13.5082 18 17.3382 14.0238 17.3382 9C17.3394 3.97623 13.5082 0 8.66909 0Z" fill="white"/>
<path d="M7.86387 12.1418C7.66262 12.1418 7.25883 11.9329 7.05758 11.9329L4.63877 9.42177C4.23499 9.00258 4.23499 8.37577 4.63877 7.95659C5.04254 7.5374 5.64631 7.5374 6.05008 7.95659L7.66264 9.6307L10.889 6.28119C11.2928 5.862 11.8965 5.862 12.3003 6.28119C12.7041 6.70037 12.7041 7.32718 12.3003 7.74637L8.26777 11.9328C8.46902 11.9328 8.06639 12.1418 7.86387 12.1418Z" fill="white"/>
<path d="M41.5344 2.09199C45.1632 2.09199 48.1883 5.23126 48.1883 8.99993C48.1883 12.7673 45.1645 15.9079 41.5344 15.9079C37.9056 15.9079 34.6805 12.7673 34.6805 8.99993C34.6805 5.23257 37.7043 2.09199 41.5344 2.09199ZM41.5344 0C36.6966 0 32.6641 3.97623 32.6641 9C32.6641 14.0238 36.4941 18 41.3332 18C46.1722 18 50.0022 14.0238 50.0022 9C50.0035 3.97623 46.3734 0 41.5344 0Z" fill="white"/>
<path d="M46.5741 9.0022C46.5741 11.8918 44.3173 14.2349 41.5325 14.2349C38.7491 14.2349 36.4922 11.8919 36.4922 9.0022C36.4922 6.11247 38.749 3.76953 41.5325 3.76953C44.3171 3.76953 46.5741 6.11247 46.5741 9.0022Z" fill="white"/>
<path d="M30.8433 10.0471C30.8433 9.62788 30.642 9.41895 30.642 9.00108C30.642 8.58189 30.642 8.37295 30.8433 7.95508H19.3516C19.3516 8.37426 19.5528 8.5832 19.5528 9.00108C19.5528 9.42026 19.5528 9.62919 19.3516 10.0471H30.8433Z" fill="white"/>
</svg>
