<svg width="50" height="50" viewBox="0 0 50 50" fill="none" xmlns="http://www.w3.org/2000/svg">
<path d="M21.7401 19.8095V31.4458H20.331V21.2868H20.2628L17.4219 23.1731V21.7413L20.331 19.8095H21.7401Z" fill="white"/>
<path d="M28.8139 31.6049C28.0336 31.6049 27.3442 31.4667 26.7457 31.1902C26.151 30.9099 25.687 30.5254 25.3537 30.0368C25.0204 29.5443 24.8556 28.9837 24.8594 28.3549C24.8556 27.8625 24.9522 27.408 25.1491 26.9913C25.3461 26.5708 25.6151 26.2205 25.956 25.9402C26.3007 25.6561 26.6851 25.4761 27.1094 25.4004V25.3322C26.5526 25.1883 26.1094 24.8758 25.7798 24.3947C25.4503 23.9099 25.2874 23.3587 25.2912 22.7413C25.2874 22.1504 25.437 21.622 25.7401 21.1561C26.0431 20.6902 26.4598 20.3227 26.9901 20.0538C27.5241 19.7849 28.1321 19.6504 28.8139 19.6504C29.4882 19.6504 30.0904 19.7849 30.6207 20.0538C31.151 20.3227 31.5677 20.6902 31.8707 21.1561C32.1776 21.622 32.3329 22.1504 32.3366 22.7413C32.3329 23.3587 32.1643 23.9099 31.831 24.3947C31.5014 24.8758 31.0639 25.1883 30.5185 25.3322V25.4004C30.9389 25.4761 31.3177 25.6561 31.6548 25.9402C31.992 26.2205 32.2609 26.5708 32.4616 26.9913C32.6624 27.408 32.7647 27.8625 32.7685 28.3549C32.7647 28.9837 32.5942 29.5443 32.2571 30.0368C31.9238 30.5254 31.4598 30.9099 30.8651 31.1902C30.2741 31.4667 29.5904 31.6049 28.8139 31.6049ZM28.8139 30.3549C29.3404 30.3549 29.795 30.2697 30.1776 30.0993C30.5601 29.9288 30.8556 29.6883 31.0639 29.3777C31.2723 29.0671 31.3783 28.7034 31.3821 28.2868C31.3783 27.8474 31.2647 27.4591 31.0412 27.122C30.8177 26.7849 30.5128 26.5197 30.1264 26.3265C29.7438 26.1333 29.3063 26.0368 28.8139 26.0368C28.3177 26.0368 27.8745 26.1333 27.4844 26.3265C27.098 26.5197 26.7931 26.7849 26.5696 27.122C26.3499 27.4591 26.242 27.8474 26.2457 28.2868C26.242 28.7034 26.3423 29.0671 26.5469 29.3777C26.7552 29.6883 27.0526 29.9288 27.4389 30.0993C27.8253 30.2697 28.2836 30.3549 28.8139 30.3549ZM28.8139 24.8322C29.2306 24.8322 29.5999 24.7489 29.9219 24.5822C30.2476 24.4155 30.5033 24.1826 30.6889 23.8833C30.8745 23.5841 30.9692 23.2337 30.973 22.8322C30.9692 22.4383 30.8764 22.0955 30.6946 21.8038C30.5128 21.5083 30.2609 21.2811 29.9389 21.122C29.617 20.9591 29.242 20.8777 28.8139 20.8777C28.3783 20.8777 27.9976 20.9591 27.6719 21.122C27.3461 21.2811 27.0942 21.5083 26.9162 21.8038C26.7382 22.0955 26.651 22.4383 26.6548 22.8322C26.651 23.2337 26.7401 23.5841 26.9219 23.8833C27.1075 24.1826 27.3632 24.4155 27.6889 24.5822C28.0147 24.7489 28.3897 24.8322 28.8139 24.8322Z" fill="white"/>
<path fill-rule="evenodd" clip-rule="evenodd" d="M50 25C50 11.1931 38.8069 0 25 0C11.1931 0 0 11.1931 0 25C0 38.8069 11.1931 50 25 50C38.8069 50 50 38.8069 50 25ZM1.57385 25C1.57385 12.0622 12.0619 1.57385 25 1.57385C37.9381 1.57385 48.4261 12.0619 48.4261 25C48.4261 37.9381 37.9381 48.4262 25 48.4262C12.0619 48.4262 1.57385 37.9381 1.57385 25Z" fill="white"/>
</svg>
