<svg width="50" height="50" viewBox="0 0 50 50" fill="none" xmlns="http://www.w3.org/2000/svg">
<path fill-rule="evenodd" clip-rule="evenodd" d="M50 25C50 11.1931 38.8069 0 25 0C11.1931 0 0 11.1931 0 25C0 38.8069 11.1931 50 25 50C38.8069 50 50 38.8069 50 25ZM1.57385 25C1.57385 12.0622 12.0619 1.57385 25 1.57385C37.9381 1.57385 48.4261 12.0619 48.4261 25C48.4261 37.9381 37.9381 48.4262 25 48.4262C12.0619 48.4262 1.57385 37.9381 1.57385 25Z" fill="white"/>
<path fill-rule="evenodd" clip-rule="evenodd" d="M21.8105 13.6815V22.0271H13.4408V13.6815H21.8105ZM11.8672 22.571C11.8672 23.141 12.3291 23.6008 12.8975 23.6008H22.354C22.9236 23.6008 23.3842 23.1401 23.3842 22.571V13.1373C23.3842 12.5672 22.9227 12.1074 22.354 12.1074H12.8975C12.3279 12.1074 11.8672 12.5681 11.8672 13.1373V22.571Z" fill="white"/>
<path fill-rule="evenodd" clip-rule="evenodd" d="M21.8105 28.33V36.6756H13.4408V28.33H21.8105ZM11.8672 37.2198C11.8672 37.7894 12.3291 38.2493 12.8975 38.2493H22.354C22.9236 38.2493 23.3842 37.7886 23.3842 37.2198V27.7857C23.3842 27.2157 22.9227 26.7559 22.354 26.7559H12.8975C12.3279 26.7559 11.8672 27.2165 11.8672 27.7857V37.2198Z" fill="white"/>
<path fill-rule="evenodd" clip-rule="evenodd" d="M36.5605 13.6815V22.0271H28.1908V13.6815H36.5605ZM26.6172 22.571C26.6172 23.141 27.0787 23.6008 27.6475 23.6008H37.104C37.6736 23.6008 38.1342 23.1401 38.1342 22.571V13.1373C38.1342 12.5672 37.6723 12.1074 37.104 12.1074H27.6475C27.0779 12.1074 26.6172 12.5681 26.6172 13.1373V22.571Z" fill="white"/>
<path fill-rule="evenodd" clip-rule="evenodd" d="M36.5605 28.33V36.6756H28.1908V28.33H36.5605ZM26.6172 37.2198C26.6172 37.7894 27.0787 38.2493 27.6475 38.2493H37.104C37.6736 38.2493 38.1342 37.7886 38.1342 37.2198V27.7857C38.1342 27.2157 37.6723 26.7559 37.104 26.7559H27.6475C27.0779 26.7559 26.6172 27.2165 26.6172 27.7857V37.2198Z" fill="white"/>
</svg>
