<svg width="41" height="50" viewBox="0 0 41 50" fill="none" xmlns="http://www.w3.org/2000/svg">
<path fill-rule="evenodd" clip-rule="evenodd" d="M9.55093 5.40277C5.72671 7.83239 2.36176 12.1539 2.36176 19.9456C2.36176 25.622 5.42665 31.1754 9.36762 36.0526C12.955 40.4922 17.1429 44.2226 20.071 46.8303C23.0758 44.0992 27.2939 39.9867 30.8696 35.3635C34.8063 30.2734 37.7882 24.7848 37.7882 19.9456C37.7882 11.534 34.4006 7.24033 30.6249 4.97575C26.7497 2.65152 22.2886 2.36176 20.075 2.36176C17.9348 2.36176 13.4548 2.92257 9.55093 5.40277ZM8.28444 3.40931C12.6875 0.61196 17.6545 0 20.075 0C22.422 0 27.408 0.292355 31.8396 2.95035C36.3708 5.668 40.1499 10.7567 40.1499 19.9456C40.1499 25.6209 36.7269 31.6505 32.7378 36.8084C28.7102 42.016 23.9252 46.5606 20.8616 49.2969L20.0743 50L19.2876 49.2962C19.0387 49.0736 18.7756 48.8393 18.4998 48.5938C15.5801 45.9945 11.249 42.1387 7.53063 37.537C3.47709 32.5204 0 26.4375 0 19.9456C0 11.3181 3.80178 6.25725 8.28444 3.40931ZM20.2121 12.2676C16.3896 12.2676 13.3047 15.343 13.3047 19.1196C13.3047 22.8962 16.3896 25.9716 20.2121 25.9716C24.0346 25.9716 27.1195 22.8962 27.1195 19.1196C27.1195 15.343 24.0346 12.2676 20.2121 12.2676ZM10.9429 19.1196C10.9429 14.0234 15.1005 9.90587 20.2121 9.90587C25.3236 9.90587 29.4812 14.0234 29.4812 19.1196C29.4812 24.2159 25.3236 28.3334 20.2121 28.3334C15.1005 28.3334 10.9429 24.2159 10.9429 19.1196Z" fill="white"/>
</svg>
