<svg width="72" height="72" viewBox="0 0 72 72" fill="none" xmlns="http://www.w3.org/2000/svg">
<path fill-rule="evenodd" clip-rule="evenodd" d="M71.2 36C71.2 55.4404 55.4404 71.2 36 71.2C16.5596 71.2 0.8 55.4404 0.8 36C0.8 16.5596 16.5596 0.8 36 0.8C55.4404 0.8 71.2 16.5596 71.2 36ZM72 36C72 55.8822 55.8822 72 36 72C16.1177 72 0 55.8822 0 36C0 16.1177 16.1177 0 36 0C55.8822 0 72 16.1177 72 36ZM36.3212 3.75937L18.1688 9.47123L36.162 4.67893L58.6964 10.6381L36.3212 3.75937ZM9.68513 14.3987C10.0415 13.963 10.4084 13.5363 10.7855 13.1189H61.372C61.7491 13.5363 62.116 13.963 62.4724 14.3987H9.68513ZM62.5625 15.6387H63.4399C64.7298 17.3725 65.8587 19.2332 66.8047 21.1986H62.8028V22.0786H67.2128C69.1061 26.3187 70.1587 31.0164 70.1587 35.9601C70.1587 44.0889 67.3128 51.553 62.5628 57.4104V55.8786H55.4028V58.2386H61.8693C61.504 58.6611 61.1284 59.0746 60.7431 59.4786H55.4028V61.8386H58.2551C57.723 62.295 57.1767 62.7352 56.6169 63.1586H55.4028V64.0357C52.8806 65.775 50.1124 67.1833 47.1611 68.1976V47.1191H47.7611V46.4791H48.2811V45.7191H42.2411V46.4391H42.7611V47.1191H43.3611V68.2391H42.7211V68.8791H42.4411V53.1191H41.4811V69.6143C41.2024 69.6587 40.9226 69.6997 40.6417 69.7373V52.759C40.6417 51.559 39.5217 49.519 36.3217 49.519C33.1217 49.519 31.9617 51.719 31.9617 52.839V69.7939C31.667 69.7584 31.3735 69.7192 31.0812 69.6762V53.1191H30.1212V68.8791H29.8412V68.2391H29.2412V47.1191H29.8412V46.4791H30.3212V45.7191H24.3612V46.4791H24.8012V47.1191H25.4412V68.2391H25.1177C22.295 67.2809 19.6384 65.9627 17.2026 64.3394V63.1586H15.5406C14.9808 62.7352 14.4345 62.295 13.9024 61.8386H17.2026V59.4786H11.4144C11.0291 59.0746 10.6535 58.6611 10.2882 58.2386H17.2026V55.8786H10.0426V57.9513C5.02422 52.0159 1.99875 44.3413 1.99875 35.9601C1.99875 31.063 3.03162 26.4072 4.89139 22.1986H9.64261V21.1986H5.35284C6.42366 18.9738 7.72901 16.8831 9.23682 14.9587H10.7625V15.9187H12.4425V14.9587H15.1625V15.9187H16.9225V14.9587H19.6825V15.6387H17.6825V20.0387H24.3625V20.7987H24.8025V21.5587H25.4425V37.4387H18.0425V42.5587H18.8425V38.1587H19.6825V42.5587H22.6025V38.1587H23.3625V42.5587H24.2025V38.1587H25.4425V38.8787H24.8025V42.5587H29.8425V38.8787H29.2425V38.1587H31.0425V42.5587H31.9225V38.1587H32.9625V42.5587H33.8825V38.1587H34.5225V42.9587H18.0425V44.3187H54.8425V42.9587H37.4425V38.1587H38.5625V42.5587H39.4425V38.1587H40.4025V42.5587H41.3225V38.1587H43.3625V38.9187H42.7625V42.5587H47.7625V38.9187H47.1625V38.1587H48.6025V42.5587H49.4825V38.1587H50.0425V42.5587H52.9625V38.1587H53.8425V42.5587H54.8425V37.4387H47.1625V21.5587H47.7225V20.7987H48.2825V20.0387H54.9625V15.6387H52.8425V14.9587H55.5625V15.9187H57.2825V14.9587H59.9625V15.9187H61.8425V14.9587H62.5625V15.6387ZM40.0817 53.039V69.8075C38.7687 69.9611 37.433 70.0401 36.0787 70.0401C34.8912 70.0401 33.7179 69.9793 32.5617 69.8608V53.039C32.5617 51.839 33.5998 50.119 36.3217 50.119C39.0435 50.119 40.0817 52.119 40.0817 53.039ZM13.0023 11.5588L36.1623 5.31881L59.3223 11.5588H13.0023ZM29.2425 37.4387V21.5587H29.8425V20.7987H30.3225V20.0387H42.2025V20.7987H42.7625V21.5587H43.3625V37.4387H29.2425ZM21.4425 14.9587V15.6387H24.1225V14.9587H21.4425ZM25.9625 14.9587V15.6387H28.6425V14.9587H25.9625ZM30.4425 15.6387V14.9587H33.1225V15.6387H30.4425ZM34.8425 14.9587V15.6387H37.5225V14.9587H34.8425ZM39.4025 15.6387V14.9587H42.0825V15.6387H39.4025ZM43.8025 14.9587V15.6387H46.4825V14.9587H43.8025ZM48.3625 15.6387V14.9587H51.0425V15.6387H48.3625ZM20.6825 16.1587V19.5987H24.6025V16.1587H20.6825ZM26.2825 16.1587V19.5987H30.2025V16.1587H26.2825ZM31.6425 19.5987V16.1587H35.5625V19.5987H31.6425ZM37.1625 16.1587V19.5987H41.0825V16.1587H37.1625ZM42.6025 19.5987V16.1587H46.5225V19.5987H42.6025ZM48.0425 16.1587V19.5987H51.9625V16.1587H48.0425ZM23.6825 17.9587C23.6825 18.511 23.2348 18.9587 22.6825 18.9587C22.1302 18.9587 21.6825 18.511 21.6825 17.9587C21.6825 17.4064 22.1302 16.9587 22.6825 16.9587C23.2348 16.9587 23.6825 17.4064 23.6825 17.9587ZM29.1225 17.9587C29.1225 18.511 28.6748 18.9587 28.1225 18.9587C27.5702 18.9587 27.1225 18.511 27.1225 17.9587C27.1225 17.4064 27.5702 16.9587 28.1225 16.9587C28.6748 16.9587 29.1225 17.4064 29.1225 17.9587ZM33.6425 18.9587C34.1948 18.9587 34.6425 18.511 34.6425 17.9587C34.6425 17.4064 34.1948 16.9587 33.6425 16.9587C33.0902 16.9587 32.6425 17.4064 32.6425 17.9587C32.6425 18.511 33.0902 18.9587 33.6425 18.9587ZM40.0825 17.9587C40.0825 18.511 39.6348 18.9587 39.0825 18.9587C38.5302 18.9587 38.0825 18.511 38.0825 17.9587C38.0825 17.4064 38.5302 16.9587 39.0825 16.9587C39.6348 16.9587 40.0825 17.4064 40.0825 17.9587ZM44.6025 18.9587C45.1548 18.9587 45.6025 18.511 45.6025 17.9587C45.6025 17.4064 45.1548 16.9587 44.6025 16.9587C44.0502 16.9587 43.6025 17.4064 43.6025 17.9587C43.6025 18.511 44.0502 18.9587 44.6025 18.9587ZM51.0425 17.9587C51.0425 18.511 50.5948 18.9587 50.0425 18.9587C49.4902 18.9587 49.0425 18.511 49.0425 17.9587C49.0425 17.4064 49.4902 16.9587 50.0425 16.9587C50.5948 16.9587 51.0425 17.4064 51.0425 17.9587ZM10.0426 21.1986V20.1986H17.2026V21.1986H14.5626V22.1986H12.6826V21.1986H10.0426ZM10.0426 24.2786V24.7186H17.2026V24.2786H10.0426ZM10.0426 25.7586V25.3186H17.2026V25.7586H10.0426ZM10.0426 26.7586V29.1186H17.2026V26.7586H10.0426ZM10.0426 30.4386V32.7986H17.2026V30.4386H10.0426ZM10.0426 36.3986V34.0386H17.2026V36.3986H10.0426ZM10.0426 37.7186V40.0786H17.2026V37.7186H10.0426ZM10.0426 43.6786V41.3186H17.2026V43.6786H10.0426ZM10.0426 44.9986V47.3586H17.2026V44.9986H10.0426ZM10.0426 50.9586V48.5986H17.2026V50.9586H10.0426ZM10.0426 52.2786V54.6386H17.2026V52.2786H10.0426ZM55.4028 21.1986V20.1986H62.5628V21.1986H59.9228V22.1986H58.0428V21.1986H55.4028ZM55.4028 24.2786V24.7186H62.5628V24.2786H55.4028ZM55.4028 25.7586V25.3186H62.5628V25.7586H55.4028ZM55.4028 26.7586V29.1186H62.5628V26.7586H55.4028ZM55.4028 30.4386V32.7986H62.5628V30.4386H55.4028ZM55.4028 36.3986V34.0386H62.5628V36.3986H55.4028ZM55.4028 37.7186V40.0786H62.5628V37.7186H55.4028ZM55.4028 43.6786V41.3186H62.5628V43.6786H55.4028ZM55.4028 44.9986V47.3586H62.5628V44.9986H55.4028ZM55.4028 50.9586V48.5986H62.5628V50.9586H55.4028ZM55.4028 52.2786V54.6386H62.5628V52.2786H55.4028ZM30.1214 52.4791V47.2791H42.4414V52.4791H41.4814C41.4681 51.1591 40.3934 48.5191 36.2014 48.5191C32.0094 48.5191 30.9881 51.1591 31.0014 52.4791H30.1214Z" fill="#C9C9C9"/>
</svg>
