<svg width="162" height="27" viewBox="0 0 162 27" fill="none" xmlns="http://www.w3.org/2000/svg">
<path d="M0.841763 22V20.0568H1.35313C2.0804 20.0568 2.64574 19.8239 3.04915 19.358C3.45256 18.892 3.74233 18.1392 3.91847 17.0994C4.10029 16.0597 4.22244 14.6818 4.28494 12.9659L4.59176 4.54545H15.2281V22H13.1145V6.42045H6.60313L6.3304 13.375C6.26222 15.2045 6.0946 16.7614 5.82756 18.0455C5.56051 19.3295 5.09176 20.3097 4.42131 20.9858C3.75085 21.6619 2.77358 22 1.48949 22H0.841763ZM21.8511 4.54545H23.9307V18.2841H24.1011L33.6466 4.54545H35.692V22H33.5784V8.29545H33.408L23.8966 22H21.8511V4.54545ZM57.151 19.9886L56.9124 26.125H54.7305V22H53.5033V19.9886H57.151ZM42.3214 22V4.54545H44.3328V20.0568H53.3328V4.54545H55.3442V22H42.3214ZM62.7449 22V4.54545H73.279V6.42045H64.8585V12.3182H72.7335V14.1932H64.8585V20.125H73.4153V22H62.7449ZM79.4886 4.54545H81.5682V18.2841H81.7386L91.2841 4.54545H93.3295V22H91.2159V8.29545H91.0455L81.5341 22H79.4886V4.54545ZM88.0795 0.181818H89.9545C89.9545 1.10227 89.6364 1.85511 89 2.44034C88.3636 3.02557 87.5 3.31818 86.4091 3.31818C85.3352 3.31818 84.4801 3.02557 83.8438 2.44034C83.2131 1.85511 82.8977 1.10227 82.8977 0.181818H84.7727C84.7727 0.625 84.8949 1.0142 85.1392 1.34943C85.3892 1.68466 85.8125 1.85227 86.4091 1.85227C87.0057 1.85227 87.4318 1.68466 87.6875 1.34943C87.9489 1.0142 88.0795 0.625 88.0795 0.181818ZM109.109 22V4.54545H111.154L118.995 17.9432H119.166V4.54545H121.245V22H119.2L111.393 8.70454H111.223V22H109.109ZM123.393 16.7159V14.9773H130.825V16.7159H123.393ZM127.109 13.4773C126.268 13.4773 125.541 13.3097 124.927 12.9744C124.319 12.6392 123.848 12.1705 123.512 11.5682C123.183 10.9659 123.018 10.2614 123.018 9.45454V8.29545C123.018 7.48864 123.183 6.78409 123.512 6.18182C123.842 5.57954 124.311 5.11079 124.919 4.77557C125.527 4.44034 126.245 4.27273 127.075 4.27273C127.916 4.27273 128.637 4.44034 129.24 4.77557C129.848 5.11079 130.313 5.57954 130.637 6.18182C130.967 6.78409 131.132 7.48864 131.132 8.29545V9.45454C131.132 10.2614 130.97 10.9659 130.646 11.5682C130.322 12.1705 129.859 12.6392 129.257 12.9744C128.654 13.3097 127.938 13.4773 127.109 13.4773ZM127.109 11.7727C127.774 11.7727 128.268 11.5625 128.592 11.142C128.921 10.7159 129.086 10.1534 129.086 9.45454V8.29545C129.086 7.61364 128.921 7.0625 128.592 6.64204C128.262 6.22159 127.757 6.01136 127.075 6.01136C126.393 6.01136 125.887 6.22159 125.558 6.64204C125.228 7.0625 125.063 7.61364 125.063 8.29545V9.45454C125.063 10.1534 125.228 10.7159 125.558 11.142C125.893 11.5625 126.41 11.7727 127.109 11.7727ZM143.448 4.54545V22H141.334V6.76136H141.232L136.971 9.59091V7.44318L141.334 4.54545H143.448ZM151.413 22L159.22 6.55682V6.42045H150.22V4.54545H161.402V6.52273L153.629 22H151.413Z" fill="#C9C9C9"/>
</svg>
