<svg width="150" height="150" viewBox="0 0 150 150" fill="none" xmlns="http://www.w3.org/2000/svg">
<path fill-rule="evenodd" clip-rule="evenodd" d="M46.119 134.396H79.2719L38.3179 131.685L40.2335 134.396H29.7097C42.1491 144.152 57.8819 150 75.0085 150C91.7032 150 107.077 144.458 119.37 135.136C107.884 142.399 95.3714 145.118 80.7147 144.949C66.1558 144.78 57.3765 141.812 46.119 134.396ZM103.719 122.081L46.119 128.572L103.898 123.826L103.719 122.081ZM57.564 30.9804L80.3071 79.4585C78.5056 80.4238 77.2747 82.2738 77.2747 84.4295C77.2747 84.5179 77.2991 84.6064 77.3073 84.7029L64.1831 94.1862L67.7535 95.6903L78.5219 87.9123C79.5735 89.2394 81.1956 90.1162 83.0461 90.1162C84.8965 90.1162 86.5268 89.2394 87.5866 87.8881L93.684 92.2638L96.3578 90.1162L88.7849 84.6707C88.7849 84.5903 88.8093 84.5099 88.8093 84.4295C88.8093 83.046 88.2876 81.7992 87.4561 80.8099L100.393 71.6725L100.54 70.0155L92.2982 61.7387L95.673 59.3739L105.838 73.5627L111.235 69.7983L99.7896 53.8159L99.113 54.2905L99.1049 54.2744L90.725 60.1542L59.4796 28.7845L65.0309 22.39L64.0853 20.5802L51.7274 21.6661L50.7981 22.3498L40.4536 47.4133L42.3366 48.5394L57.564 30.9804ZM85.6465 79.3942C84.8639 79.0001 83.9835 78.7507 83.0461 78.7507C82.8423 78.7507 82.6548 78.7909 82.4673 78.807L79.2229 71.8896H96.2844L85.6465 79.3942ZM97.0833 69.6938H80.9593L90.4478 63.0338L97.0833 69.6938ZM88.8745 61.4492L77.9187 69.1307L61.3545 33.8198L88.8745 61.4492ZM61.5501 23.0174L57.8982 27.2241L54.2788 23.6528L61.5501 23.0174ZM52.2083 24.7226L56.4472 28.8972L45.0837 41.9839L52.2083 24.7226ZM122.068 118.132L115.131 86.2392L107.012 83.5286L83.0216 102.431L94.059 108.061C94.059 108.061 68.6747 98.1195 47.6026 89.8588C26.5305 81.5981 14.2297 77.9786 14.2297 77.9786L17.4985 87.5342C17.4985 87.5342 17.5066 87.5503 18.4522 90.0599L60.0095 103.814L19.5772 93.0521C20.2782 94.9101 21.2156 97.3875 22.4628 100.701C25.4056 108.496 29.6689 116.676 32.6687 122.073L36.1169 121.019L40.2253 125.717C40.2253 125.717 50.04 123.4 62.5283 120.537C71.6337 118.453 81.1549 116.394 86.8692 115.493C100.434 113.37 103.034 112.895 108.218 113.306C113.403 113.724 118.832 116 119.46 120.32C120.095 124.647 118.693 127.253 116.729 130.784C116.158 131.814 115.433 132.795 114.691 133.696H116.15L118.767 131.548L122.166 128.194C125.565 124.84 128.451 120.963 128.451 120.963L122.068 118.132ZM62.7484 119.403C62.7484 119.403 64.4684 113.466 66.3188 111.914C68.1693 110.362 77.7393 107.78 81.0408 107.08C84.3503 106.372 85.6954 106.67 86.4209 107.506L87.1382 108.343L87.285 113.78L62.7484 119.403ZM72.9217 0.0290574C114.324 -1.10508 148.822 31.1011 149.971 71.954C150.273 82.7966 148.186 93.1405 144.2 102.535C146.833 94.7653 148.145 86.4162 147.917 77.7533C146.8 36.1524 116.37 4.81494 73.1989 5.81233C28.9516 6.83385 1.39893 42.1207 2.51571 81.7349C2.77656 91.0895 4.86339 99.9614 8.39307 108.061C3.33903 98.4573 0.347363 87.6066 0.0294482 76.0723C-1.11994 35.2033 31.5194 1.16319 72.9217 0.0290574Z" fill="white"/>
</svg>
