<svg width="89" height="70" viewBox="0 0 89 70" fill="none" xmlns="http://www.w3.org/2000/svg">
<path fill-rule="evenodd" clip-rule="evenodd" d="M2.58761 0.63514C1.42989 1.28954 1.32844 3.1452 1.32844 23.6371C1.32844 44.9594 1.38888 45.9581 2.72 46.6495C4.75482 47.7062 6.86735 47.533 7.36742 46.2675C7.60774 45.6599 7.80417 36.6679 7.80417 26.2854V7.40757L10.4002 7.88039C15.8549 8.87422 32.7674 14.5823 35.7657 16.4421C37.7221 17.6553 39.6605 19.7044 40.9124 21.8806C42.5904 24.7971 43.2588 25.3726 44.9699 25.3726C46.5219 25.3726 47.2853 24.8649 48.1192 23.2774C51.0779 17.6448 53.7481 15.7039 62.8479 12.5709C67.5349 10.9576 79.5301 7.56331 80.5454 7.56331C80.8908 7.56331 81.2591 16.4414 81.3642 27.2932L81.5556 47.0232L83.5775 47.2481C87.6874 47.7055 87.6716 47.7949 87.6716 23.9067V2.0082L85.9181 0.892851C84.2819 -0.147073 83.6897 -0.0974865 77.1039 1.63945C58.2624 6.6072 49.3079 10.2375 46.5197 14.0382L45.0145 16.0901L43.2451 13.8964C40.1397 10.0447 29.9188 6.00587 12.317 1.67506C4.07631 -0.352404 4.2936 -0.329357 2.58761 0.63514ZM10.2491 12.8377C9.99513 13.8182 10.0772 20.2477 10.4312 27.1256L11.0737 39.6306L13.2164 41.8208C15.8398 44.5019 20.28 46.7445 29.9397 50.2666C38.0804 53.2355 39.8166 53.4974 40.4656 51.8547C41.2262 49.932 40.9369 37.5689 40.0951 35.9772C38.2502 32.4922 35.3987 30.5394 28.1236 27.7786C19.8411 24.6351 17.6473 24.4857 17.2753 27.0397C16.9832 29.0413 17.1141 29.1279 25.9074 32.7429C34.7152 36.3634 35.28 36.9571 35.003 42.2999L34.7864 46.4672L26.9083 43.2001C16.2363 38.7743 16.1464 38.6402 15.8283 26.7254L15.5779 17.3535L22.2825 19.6164C28.9633 21.8715 30.1692 22.7019 35.6506 28.8241C37.3911 30.7671 39.1403 30.6044 39.8504 28.4316C40.5469 26.3008 37.4465 20.9412 34.1935 18.654C31.478 16.7452 14.8088 11.0553 11.9307 11.0553C11.2219 11.0553 10.5161 11.8026 10.2491 12.8377ZM72.9213 11.753C72.1298 12.1029 67.9717 13.696 63.6804 15.2933C55.3375 18.3977 51.3859 21.1061 49.7892 24.8153C49.0906 26.4384 48.8172 30.7413 48.8172 40.1118V53.1496L51.8759 52.7424C56.3247 52.1509 71.134 46.1767 73.5516 43.9991C76.8355 41.0406 79.0221 35.8229 79.0301 30.9249C79.0372 26.5627 78.258 25.0234 76.0404 25.0234C74.3359 25.0234 73.281 27.1242 73.281 30.5192C73.281 35.9688 70.939 39.3728 65.259 42.1797C62.3169 43.6331 54.6691 46.6726 53.9503 46.6733C53.8056 46.674 53.8323 42.5101 54.01 37.4201C54.3906 26.5117 55.0216 24.8321 59.5733 22.6069C62.3371 21.2555 72.7903 17.341 73.6336 17.341C73.7804 17.341 74.0042 18.0478 74.1301 18.9124C74.3107 20.143 74.828 20.4838 76.5189 20.4838C78.5278 20.4838 78.7243 20.2491 79.3502 17.1C79.7971 14.8561 79.7726 13.3279 79.2776 12.5604C78.4264 11.2397 75.0504 10.8109 72.9213 11.753ZM1.07516 49.2476C0.0138637 50.2777 0.862904 50.6835 5.82548 51.5146C14.7584 53.0113 32.3105 57.6005 29.8627 57.7995C29.5288 57.8261 26.1291 57.231 22.3077 56.4761C10.7629 54.1965 1.0471 52.9533 0.317504 53.6615C-0.484048 54.4395 0.301674 54.7349 5.64559 55.6645L9.60299 56.3532L5.28583 56.2281C0.159928 56.0787 -1.15752 57.3169 3.48702 57.9183L6.72488 58.3373L3.30713 58.4421C-1.43166 58.5873 -0.977643 59.7502 4.02666 60.2859C10.3031 60.957 10.8607 61.2783 5.48514 61.1274C-1.17479 60.9403 -1.05463 62.2658 5.64559 62.8937C32.8264 65.4394 38.1135 66.3194 42.7516 69.069C44.7432 70.2493 45.1116 70.2751 46.5032 69.3288C50.4735 66.6302 59.6777 64.8897 77.5982 63.4496C88.2335 62.5955 89.4107 62.3769 88.7724 61.374C88.5328 60.9975 86.203 60.8313 83.5098 60.9975C78.0055 61.3384 78.8149 60.9445 84.9733 60.2859C89.9776 59.7502 90.4317 58.5873 85.6929 58.4421L82.2751 58.3373L85.513 57.9183C90.1561 57.3176 88.8408 56.0794 83.7142 56.2253L79.397 56.3483L83.925 55.5269C86.4153 55.0751 88.4256 54.3913 88.3918 54.0072C88.3083 53.0525 84.0365 53.4527 72.5615 55.4913C67.219 56.4405 62.0384 57.3547 61.0491 57.523C55.1828 58.5224 72.986 53.4841 79.9367 52.1781C85.5655 51.12 88.3911 50.2847 88.3911 49.6792C88.3911 48.524 89.0041 48.4724 78.6545 50.5061C62.3313 53.7146 52.1838 57.5754 47.3479 62.4188L44.9763 64.7934L41.7953 61.9467C36.5564 57.259 27.5372 53.8941 12.1213 50.8742C7.96607 50.0605 3.88563 49.2595 3.05386 49.0946C2.22281 48.9298 1.33204 48.9983 1.07516 49.2476ZM13.0344 56.9098C12.5473 57.1011 11.5759 57.113 10.8758 56.9356C10.1757 56.7582 10.5743 56.6018 11.7616 56.5878C12.9488 56.5738 13.5215 56.7184 13.0344 56.9098ZM78.5113 56.9098C78.0242 57.1011 77.0528 57.113 76.3527 56.9356C75.6526 56.7582 76.0512 56.6018 77.2384 56.5878C78.4257 56.5738 78.9984 56.7184 78.5113 56.9098ZM17.6825 57.5719C17.4437 57.8037 16.8227 57.8289 16.3039 57.627C15.7298 57.4042 15.9003 57.2387 16.7385 57.2052C17.4969 57.1752 17.9214 57.34 17.6825 57.5719ZM73.8056 57.5719C73.5667 57.8037 72.9457 57.8289 72.427 57.627C71.8528 57.4042 72.0233 57.2387 72.8616 57.2052C73.6199 57.1752 74.0445 57.34 73.8056 57.5719ZM11.2219 59.028C10.5297 59.204 9.39576 59.204 8.70358 59.028C8.01068 58.8527 8.57766 58.7089 9.96275 58.7089C11.3478 58.7089 11.9141 58.8527 11.2219 59.028ZM80.2964 59.028C79.6035 59.204 78.471 59.204 77.7781 59.028C77.0852 58.8527 77.6522 58.7089 79.0373 58.7089C80.4223 58.7089 80.9893 58.8527 80.2964 59.028ZM16.632 59.7034C16.1449 59.8948 15.1736 59.9066 14.4735 59.7292C13.7734 59.5518 14.172 59.3954 15.3592 59.3814C16.5464 59.3675 17.1192 59.512 16.632 59.7034ZM74.9 59.7076C74.4057 59.9017 73.5962 59.9017 73.1012 59.7076C72.6068 59.5141 73.0112 59.3556 74.0006 59.3556C74.9899 59.3556 75.395 59.5141 74.9 59.7076ZM21.2802 60.3655C21.0413 60.5974 20.4203 60.6225 19.9016 60.4207C19.3274 60.1979 19.4979 60.0323 20.3362 59.9988C21.0945 59.9688 21.5191 60.1336 21.2802 60.3655ZM70.2079 60.3655C69.9691 60.5974 69.3481 60.6225 68.8293 60.4207C68.2552 60.1979 68.4257 60.0323 69.2639 59.9988C70.0223 59.9688 70.4468 60.1336 70.2079 60.3655ZM15.1793 61.8028C14.685 61.997 13.8755 61.997 13.3805 61.8028C12.8862 61.6093 13.2906 61.4508 14.2799 61.4508C15.2693 61.4508 15.6743 61.6093 15.1793 61.8028ZM76.339 61.8028C75.8447 61.997 75.0352 61.997 74.5402 61.8028C74.0459 61.6093 74.4503 61.4508 75.4396 61.4508C76.429 61.4508 76.8341 61.6093 76.339 61.8028Z" fill="#C9C9C9"/>
</svg>
