<svg width="229" height="45" viewBox="0 0 229 45" fill="none" xmlns="http://www.w3.org/2000/svg">
<path d="M77.1842 17.15L83.0855 12.9891C80.04 8.47173 74.8857 5.50114 69.0394 5.50114C59.682 5.50114 52.0957 13.1117 52.0957 22.4996C52.0957 31.8876 59.682 39.498 69.0394 39.498C74.8857 39.498 80.0405 36.5279 83.0855 32.0101L77.1842 27.8491C75.5327 30.3609 72.7506 32.0101 69.5966 32.0101C64.5297 32.0101 60.4216 27.7522 60.4216 22.4996C60.4216 17.2469 64.5297 12.9891 69.5966 12.9891C72.7506 12.9891 75.5331 14.6382 77.1842 17.15ZM197.312 7.49892H204.933L204.932 30.5148H209.059L209.055 7.49892H216.654V30.5148H220.796L220.797 7.49892H228.462V37.4997H197.312V7.49892ZM116.967 25.352V30.7794H122.937C126.569 30.3865 126.035 25.3054 122.937 25.352H116.967ZM126.168 37.4997H109.324V7.49892H124.876C132.384 7.45284 135.327 17.4298 129.066 21.7257C136.997 25.2361 134.769 37.2233 126.168 37.4997ZM116.967 19.2316H122.937C126.37 19.024 126.168 14.3352 122.916 14.2198H116.967V19.2316ZM177.67 7.49892H186.56L196.497 37.4997H188.165L182.238 18.5152L178.807 30.5019H183.419C184.31 30.4792 184.645 30.8254 184.354 31.7954L182.305 37.4997H168.736L177.67 7.49892ZM159.684 24.3179H170.171V25.7685H167.227V37.4997H159.685L159.684 24.3179ZM144.573 24.3179H159.048L153.96 37.5016H149.527L144.573 24.3179ZM136.179 24.3179H143.88V37.4997H136.179V24.3179ZM136.179 21.8593H170.171V23.3095H136.179V21.8593ZM136.179 19.4006H170.171V20.8508H136.179V19.4006ZM167.226 7.49892H157.734L153.205 18.3917H167.226V7.49892ZM136.179 7.49892H145.662L150.213 18.3917H136.179V7.49892ZM68.5857 21.8593H103.054V23.3095H68.5857V21.8593ZM68.5857 19.4006H103.054V20.8508H68.5857V19.4006ZM68.5857 24.3179H103.054V25.7685H93.1477V30.5148H106.472V37.4997H85.1132V25.7709L68.5857 25.7685V24.3179ZM85.1132 7.49892H106.223V14.5841H93.15L93.1477 18.3917H85.1132V7.49892Z" fill="#C9C9C9"/>
<path fill-rule="evenodd" clip-rule="evenodd" d="M3.61785 7.15256e-07H39.795C41.7846 7.15256e-07 43.4128 1.68721 43.4128 3.74969V41.2498C43.4128 43.3128 41.7846 45 39.795 45H3.61785C1.62815 45 0 43.3128 0 41.2498V3.74969C0 1.68721 1.62815 7.15256e-07 3.61785 7.15256e-07ZM3.61785 1.72479H39.795C40.8696 1.72479 41.749 2.63582 41.749 3.74969V41.2498C41.749 42.3637 40.8696 43.2748 39.795 43.2748H3.61785C2.54327 43.2748 1.66389 42.3637 1.66389 41.2498V3.74969C1.66389 2.63582 2.54327 1.72479 3.61785 1.72479ZM12.9848 30.5153C14.4434 27.63 17.1952 25.5581 20.4419 25.1268C20.7265 25.0893 20.9469 24.837 20.9469 24.5317V5.56045C20.9469 5.12584 21.2869 4.77332 21.7062 4.77332C22.1259 4.77332 22.466 5.12584 22.466 5.55996V24.5317C22.466 24.837 22.6864 25.0893 22.9709 25.1268C26.2176 25.5581 28.9689 27.63 30.428 30.5153H40.048C40.4677 30.5153 40.8081 30.8677 40.8081 31.3028C40.8081 31.7375 40.4677 32.0899 40.048 32.0899L27.8719 32.0904C26.7496 29.7367 24.4103 28.1184 21.7062 28.1184C19.0025 28.1184 16.6632 29.7367 15.5405 32.0904L3.36445 32.0899C2.94468 32.0899 2.60467 31.7375 2.60467 31.3028C2.60467 30.8677 2.94468 30.5153 3.36445 30.5153H12.9848ZM36.865 35.2401L23.5877 35.2415C23.5877 34.1666 22.7455 33.293 21.7062 33.293C20.6674 33.293 19.8251 34.1666 19.8251 35.2415L6.54788 35.2401C6.12858 35.2401 5.78856 34.8876 5.78856 34.4525C5.78856 34.0179 6.12858 33.665 6.54788 33.665H16.27C16.9349 31.2011 19.1171 29.3933 21.7062 29.3933C24.2957 29.3933 26.4779 31.2011 27.1423 33.665H36.865C37.2842 33.665 37.6243 34.0179 37.6243 34.4525C37.6243 34.8876 37.2842 35.2401 36.865 35.2401ZM23.9855 23.7707V10.7522C23.9855 10.3176 24.3255 9.96519 24.7452 9.96519C25.1651 9.96519 25.505 10.3176 25.505 10.7522V22.4046C28.2238 23.2681 30.5618 25.0342 32.1945 27.365H36.865C37.2842 27.365 37.6243 27.718 37.6243 28.1526C37.6243 28.5876 37.2842 28.9402 36.865 28.9402H30.9581C29.4198 26.5181 27.0191 24.7358 24.2091 24.0628C24.0808 24.0314 23.9855 23.9127 23.9855 23.7707ZM19.4273 23.7707V10.7522C19.4273 10.3176 19.0868 9.96519 18.6676 9.96519C18.2478 9.96519 17.9078 10.3176 17.9078 10.7522V22.4046C15.1891 23.2681 12.8506 25.0342 11.2183 27.365H6.54788C6.12858 27.365 5.78856 27.718 5.78856 28.1526C5.78856 28.5876 6.12858 28.9402 6.54788 28.9402H12.4542C13.993 26.5181 16.3937 24.7358 19.2037 24.0628C19.332 24.0314 19.4273 23.9127 19.4273 23.7707Z" fill="#C9C9C9"/>
</svg>
