<svg width="130" height="130" viewBox="0 0 130 130" fill="none" xmlns="http://www.w3.org/2000/svg">
<path fill-rule="evenodd" clip-rule="evenodd" d="M39.9698 116.476H68.7023L33.2088 114.127L34.869 116.476H25.7484C36.5292 124.932 50.1643 130 65.0074 130C79.4761 130 92.8003 125.197 103.454 117.118C93.4997 123.412 82.6552 125.769 69.9527 125.622C57.335 125.476 49.7263 122.903 39.9698 116.476ZM89.8896 105.804L39.9698 111.429L90.045 107.316L89.8896 105.804ZM49.8888 26.8497L69.5995 68.8641C68.0382 69.7006 66.9714 71.304 66.9714 73.1722C66.9714 73.2489 66.9926 73.3255 66.9997 73.4092L55.6254 81.628L58.7197 82.9316L68.0523 76.1906C68.9637 77.3409 70.3696 78.1007 71.9733 78.1007C73.577 78.1007 74.9899 77.3409 75.9083 76.1697L81.1928 79.962L83.5101 78.1007L76.9469 73.3813C76.9469 73.3116 76.9681 73.2419 76.9681 73.1722C76.9681 71.9732 76.5159 70.8927 75.7953 70.0352L87.0071 62.1161L87.1343 60.6801L79.9918 53.5069L82.9166 51.4574L91.7264 63.7543L96.4033 60.4919L86.4843 46.6405L85.8979 47.0517L85.8909 47.0378L78.6283 52.1336L51.549 24.9466L56.3601 19.4047L55.5406 17.8362L44.8304 18.7773L44.025 19.3698L35.0598 41.0915L36.6917 42.0675L49.8888 26.8497ZM74.2269 68.8083C73.5487 68.4667 72.7857 68.2506 71.9733 68.2506C71.7966 68.2506 71.6342 68.2855 71.4717 68.2994L68.6599 62.3044H83.4465L74.2269 68.8083ZM84.1388 60.4013H70.1647L78.3881 54.6293L84.1388 60.4013ZM77.0246 53.256L67.5295 59.9133L53.1739 29.3105L77.0246 53.256ZM53.3434 19.9484L50.1784 23.5942L47.0416 20.4991L53.3434 19.9484ZM45.2472 21.4262L48.9209 25.0442L39.0726 36.3861L45.2472 21.4262ZM105.792 102.381L99.7803 74.7407L92.7437 72.3914L71.9521 88.7734L81.5178 93.6531C81.5178 93.6531 59.5181 85.0369 41.2556 77.8776C22.9931 70.7184 12.3324 67.5814 12.3324 67.5814L15.1654 75.863C15.1654 75.863 15.1724 75.8769 15.9919 78.0519L52.0082 89.9724L16.9669 80.6451C17.5744 82.2554 18.3869 84.4025 19.4678 87.2746C22.0182 94.0295 25.7131 101.119 28.3129 105.797L31.3013 104.883L34.862 108.954C34.862 108.954 43.368 106.947 54.1912 104.465C62.0826 102.66 70.3342 100.875 75.2867 100.094C87.0425 98.2539 89.2961 97.8427 93.7893 98.1982C98.2825 98.5607 102.988 100.533 103.532 104.277C104.083 108.027 102.868 110.286 101.165 113.346C100.67 114.239 100.042 115.089 99.3987 115.87H100.663L102.931 114.008L105.877 111.102C108.823 108.195 111.324 104.835 111.324 104.835L105.792 102.381ZM54.382 103.482C54.382 103.482 55.8726 98.3376 57.4763 96.9922C59.08 95.6468 67.3741 93.4091 70.2353 92.8026C73.1036 92.1892 74.2693 92.4471 74.8981 93.1721L75.5198 93.897L75.647 98.6095L54.382 103.482ZM63.1988 0.0251831C99.0808 -0.957732 128.979 26.9543 129.975 62.3601C130.237 71.7571 128.428 80.7218 124.973 88.864C127.255 82.1299 128.393 74.894 128.195 67.3862C127.227 31.3321 100.854 4.17295 63.439 5.03735C25.0914 5.92267 1.21241 36.5046 2.18028 70.8369C2.40636 78.9442 4.21494 86.6333 7.27399 93.6531C2.89382 85.3297 0.301048 75.9257 0.0255218 65.9293C-0.970613 30.5095 27.3168 1.0081 63.1988 0.0251831Z" fill="black"/>
</svg>
