<svg width="265" height="45" viewBox="0 0 265 45" fill="none" xmlns="http://www.w3.org/2000/svg">
<path fill-rule="evenodd" clip-rule="evenodd" d="M43.5083 14.9656C44.0617 11.449 42.9632 8.34354 40.9219 5.36982C38.7174 2.15838 35.4852 1.01687 32.3118 0.898351C29.1254 0.779346 26.0365 1.69701 24.2293 2.56005C24.0071 2.66615 23.7405 2.57297 23.6339 2.35193C23.5272 2.13089 23.6209 1.86569 23.8431 1.7596C25.7544 0.846857 28.9871 -0.114336 32.3453 0.0110863C35.7167 0.136997 39.2523 1.36319 41.6589 4.86909C43.7824 7.96261 44.9894 11.2943 44.39 15.1029C43.7931 18.8959 41.4162 23.0839 36.5486 27.9266C36.3744 28.1 36.0918 28.1 35.9176 27.9266C35.7433 27.7532 35.7433 27.4721 35.9176 27.2988C40.7182 22.5227 42.9524 18.4976 43.5083 14.9656ZM15.0426 1.34495C11.508 0.794383 8.38647 1.88729 5.39745 3.91812C2.16948 6.11132 1.0221 9.32697 0.902974 12.4841C0.783357 15.6542 1.70574 18.7273 2.57322 20.5253C2.67987 20.7463 2.58621 21.0115 2.36403 21.1176C2.14186 21.2237 1.87529 21.1305 1.76865 20.9095C0.851215 19.008 -0.114924 15.7918 0.0111433 12.4508C0.137702 9.09669 1.37021 5.57918 4.89414 3.1849C8.00358 1.07225 11.3524 -0.128551 15.1806 0.467747C18.9931 1.0616 23.2027 3.42627 28.0703 8.26897C28.2445 8.44234 28.2445 8.72343 28.0703 8.8968C27.896 9.07017 27.6135 9.07017 27.4392 8.8968C22.6385 4.12072 18.5928 1.89796 15.0426 1.34495ZM39.5513 40.6243C36.5623 42.6552 33.4408 43.7481 29.9062 43.1975C26.3559 42.6445 22.3102 40.4217 17.5095 35.6456C17.3353 35.4723 17.0527 35.4723 16.8785 35.6457C16.7042 35.819 16.7042 36.1001 16.8785 36.2735C21.7461 41.1162 25.9556 43.4808 29.7681 44.0747C33.5963 44.671 36.9452 43.4702 40.0546 41.3575C43.5785 38.9633 44.811 35.4458 44.9376 32.0917C45.0637 28.7506 44.0975 25.5345 43.1801 23.633C43.0734 23.4119 42.8069 23.3187 42.5847 23.4248C42.3625 23.5309 42.2689 23.7961 42.3755 24.0172C43.243 25.8152 44.1654 28.8883 44.0458 32.0584C43.9266 35.2155 42.7792 38.4311 39.5513 40.6243ZM1.28067 28.5263C0.611181 32.3161 1.68243 36.011 3.71006 38.9648C5.91454 42.1762 9.14674 43.3177 12.3201 43.4363C15.5065 43.5553 18.5954 42.6376 20.4027 41.7746C20.6248 41.6685 20.8914 41.7616 20.998 41.9827C21.1047 42.2037 21.011 42.4689 20.7889 42.575C18.8775 43.4877 15.6449 44.4489 12.2866 44.3235C8.91527 44.1976 5.37967 42.9714 2.97307 39.4655C0.835888 36.3521 -0.314353 32.4259 0.401686 28.3726C1.119 24.3121 3.69868 20.183 8.91065 16.651C9.11433 16.513 9.39192 16.5653 9.53066 16.768C9.6694 16.9706 9.61675 17.2468 9.41307 17.3848C4.36176 20.8079 1.94889 24.7438 1.28067 28.5263ZM27.606 6.30331L25.3749 3.78762C28.6473 2.25848 35.4893 0.384038 39.8029 6.00734C45.9354 14.0017 39.3567 22.7293 36.2331 24.5051L36.2332 20.3616C38.7618 17.3033 41.4391 12.0746 36.5306 7.33918C33.5066 4.42172 29.2421 5.41542 27.606 6.30331ZM13.8777 14.6065C13.2998 15.0072 12.5971 15.2421 11.8392 15.2421C9.86767 15.2421 8.2694 13.652 8.2694 11.6906C8.2694 9.72908 9.86767 8.139 11.8392 8.139C13.8108 8.139 15.4091 9.72908 15.4091 11.6906C15.4091 12.3679 15.2185 13.001 14.8877 13.5396L17.3427 15.982L16.3015 17.0179L13.8777 14.6065ZM33.5557 36.2555C35.5273 36.2555 37.1256 34.6654 37.1256 32.704C37.1256 30.7425 35.5273 29.1524 33.5557 29.1524C32.8363 29.1524 32.1666 29.3641 31.606 29.7284L29.2422 27.3766L28.201 28.4125L30.5648 30.7643C30.1987 31.3219 29.9859 31.9882 29.9859 32.704C29.9859 34.6654 31.5842 36.2555 33.5557 36.2555ZM11.393 35.3676C12.6252 35.3676 13.6242 34.3738 13.6242 33.1479C13.6242 32.805 13.546 32.4804 13.4065 32.1905L16.599 29.1524L15.7066 28.2645L12.5657 31.2591C12.2249 31.0493 11.8232 30.9282 11.393 30.9282C10.1608 30.9282 9.16186 31.922 9.16186 33.1479C9.16186 34.3738 10.1608 35.3676 11.393 35.3676ZM31.691 12.5L28.4985 15.5381L29.3909 16.426L32.5318 13.4314C32.8726 13.6412 33.2743 13.7623 33.7045 13.7623C34.9367 13.7623 35.9356 12.7685 35.9356 11.5426C35.9356 10.3167 34.9367 9.32286 33.7045 9.32286C32.4722 9.32286 31.4733 10.3167 31.4733 11.5426C31.4733 11.8854 31.5515 12.2101 31.691 12.5ZM21.6563 14.6502H22.6975L23.7387 14.6502L24.1849 15.8341L25.0774 16.13L26.2673 15.0941L27.7547 16.13L27.011 17.3139L27.7547 18.2018L29.2422 18.0538L29.9859 19.5336L28.9447 20.2735L29.2422 21.0134L30.5809 21.6053V23.0852L29.2422 23.6771L29.0934 24.8609L29.8372 26.0448L29.0934 27.0807L27.9035 26.7847L27.1598 27.5246L27.4573 28.8564L26.1186 29.5963L25.0774 28.7085L23.8874 29.0044L23.7387 30.0403H22.6975H21.6563L21.2101 28.8564L20.3176 28.5605L19.1276 29.5963L17.6402 28.5605L18.3839 27.3766L17.6402 26.4887L16.1528 26.6367L15.4091 25.1569L16.4503 24.417L16.1528 23.6771L14.8141 23.0852V21.6053L16.1528 21.0134L16.3015 19.8296L15.5578 18.6457L16.3015 17.6098L17.4915 17.9058L18.2352 17.1659L17.9377 15.8341L19.2764 15.0941L20.3176 15.982L21.5075 15.6861L21.6563 14.6502ZM21.9538 19.5336L22.6975 18.7937L23.4412 19.5336L24.7799 19.3856V20.4215L25.9698 20.5695L25.8211 21.6053L26.7135 22.4932L25.8211 23.3811L25.9698 24.417L24.7799 24.565V25.6008L23.4412 25.4529L22.6975 26.1928L21.9538 25.4529L20.6151 25.6008V24.565L19.4251 24.417L19.5739 23.3811L18.6814 22.4932L19.5739 21.6053L19.4251 20.5695L20.6151 20.4215V19.3856L21.9538 19.5336ZM27.3085 22.3452C27.3085 24.9605 25.1775 27.0807 22.5487 27.0807C19.92 27.0807 17.789 24.9605 17.789 22.3452C17.789 19.7299 19.92 17.6098 22.5487 17.6098C25.1775 17.6098 27.3085 19.7299 27.3085 22.3452ZM27.9035 22.3452C27.9035 25.2875 25.5061 27.6726 22.5487 27.6726C19.5914 27.6726 17.194 25.2875 17.194 22.3452C17.194 19.403 19.5914 17.0179 22.5487 17.0179C25.5061 17.0179 27.9035 19.403 27.9035 22.3452ZM3.80711 19.3855L6.33574 17.1658C5.44328 15.5381 4.44447 11.2955 7.37694 8.2869C12.1367 3.40359 17.3923 6.06718 20.4663 8.58287L24.6311 8.58287C22.8462 5.47533 14.0738 -1.06968 6.03825 5.0314C0.386015 9.32294 2.2701 16.1299 3.80711 19.3855ZM41.1416 25.1569L38.613 27.3767C39.5055 29.0044 40.5043 33.247 37.5718 36.2556C32.812 41.1389 27.5564 38.4753 24.4824 35.9596L20.3176 35.9596C22.1025 39.0671 30.875 45.6121 38.9105 39.5111C44.5627 35.2195 42.6787 28.4125 41.1416 25.1569ZM17.0259 38.0313L19.257 40.547C15.9847 42.0762 9.14266 43.9506 4.82903 38.3273C-1.30343 30.3329 5.27526 21.6054 8.39879 19.8296L8.39878 23.9731C5.87015 27.0313 3.19285 32.26 8.10129 36.9954C11.1254 39.9129 15.3898 38.9192 17.0259 38.0313ZM49.9175 29.8923V14.9462H53.9335V20.7174L61.6682 14.9462H67.1717L57.5034 21.9013L68.5104 29.8923H62.5606L53.9335 23.6771V29.8923H49.9175ZM71.4852 14.9462V29.8923H85.0208C86.6638 29.8923 87.9957 28.5672 87.9957 26.9327V24.5702C87.9957 23.3999 87.0866 22.4286 85.9133 22.3452C87.1279 22.0863 87.9957 21.0184 87.9957 19.7825V17.9058C87.9957 16.2712 86.6638 14.9462 85.0208 14.9462H71.4852ZM74.9063 17.4618V20.8654H83.0872C83.9087 20.8654 84.5746 20.2029 84.5746 19.3856V18.7937C84.5746 17.9764 83.9087 17.3139 83.0872 17.3139H74.9063V17.4618ZM74.9063 27.0807V23.6771V23.5291H83.0872C83.9087 23.5291 84.5746 24.1916 84.5746 25.0089V25.6008C84.5746 26.4181 83.9087 27.0807 83.0872 27.0807H74.9063ZM90.6731 29.8923H94.5404L96.4741 26.6367H105.547L107.481 29.8923H111.943L103.019 14.9462H99.1514L90.6731 29.8923ZM114.472 29.8923V14.9462H118.339V20.5695H129.049V14.9462H132.916V30.0403H129.049V23.5291H118.339V29.8923H114.472ZM97.9615 23.6771L101.085 18.0538L104.209 23.6771H97.9615ZM135.891 17.6098V14.9462H153.443V17.6098H146.452V30.0403H142.733V17.6098H135.891ZM156.12 17.9058V27.0807C156.12 28.7152 157.452 30.0403 159.095 30.0403H172.036C173.679 30.0403 175.01 28.7152 175.01 27.0807V17.9058C175.01 16.2712 173.679 14.9462 172.036 14.9462H159.095C157.452 14.9462 156.12 16.2712 156.12 17.9058ZM179.324 30.0403V14.9462H193.008C194.651 14.9462 195.983 16.2712 195.983 17.9058V21.1614C195.983 22.7959 194.651 24.121 193.008 24.121H183.191V30.0403H179.324ZM200.148 14.9462V30.0403H202.974L214.874 19.9775V30.0403H218.295V14.9462H214.874L203.42 24.8609V14.9462H200.148ZM223.203 21.6053V14.9462H227.071V21.9013H236.888V14.9462H240.755V27.0807C240.755 28.7152 239.423 30.0403 237.78 30.0403H223.203V27.0807H236.888V24.565H226.178C224.535 24.565 223.203 23.2399 223.203 21.6053ZM244.92 14.9462V30.0403H248.043V19.8296L254.737 28.5605L261.579 19.8296V30.0403H265V14.9462H261.728L254.737 23.5291L248.341 14.9462H244.92ZM190.628 17.6098H183.191V21.4574H190.628C191.45 21.4574 192.116 20.7948 192.116 19.9775V19.0896C192.116 18.2724 191.45 17.6098 190.628 17.6098ZM159.839 26.7847V17.6098H171.143V26.7847H159.839Z" fill="#C9C9C9"/>
</svg>
