<svg width="84" height="76" viewBox="0 0 84 76" fill="none" xmlns="http://www.w3.org/2000/svg">
<path fill-rule="evenodd" clip-rule="evenodd" d="M31.5041 7.69908L31.4678 3.84179C31.4341 0.279475 31.4132 -0.0141388 31.194 0.000486454C31.0632 0.00923406 27.738 1.1882 23.804 2.62045L16.6515 5.22456V11.0886V16.9528L16.9595 16.8574C17.129 16.8049 20.4352 15.6311 24.3072 14.249L31.3466 11.7362L38.277 12.9684C42.0885 13.6461 45.3512 14.2005 45.5276 14.2005C45.8399 14.2005 53.0288 11.6571 53.2379 11.4726C53.2956 11.4216 49.9384 10.8074 45.7774 10.108C41.6164 9.40853 36.7025 8.58032 34.8579 8.26757L31.5041 7.69908ZM83.5073 7.91272C83.6947 6.89779 83.891 5.59061 83.9436 5.00803C83.9963 4.42546 84.0155 3.95483 83.9864 3.96248C83.9573 3.97 65.5145 10.6996 43.0029 18.9169L2.07266 33.8575L2.03469 35.8006C2.00448 37.3335 2.03362 37.7296 2.17158 37.6771C3.40413 37.208 75.2992 13.6665 75.3484 13.7158C75.5345 13.9017 73.5528 18.5804 72.093 21.4016C71.5024 22.5428 70.5158 24.3434 69.9008 25.4028C68.4325 27.9321 65.0632 33.0083 64.7447 33.1705C64.6073 33.2408 64.0942 33.373 63.6049 33.4644C59.8514 34.1658 54.6573 35.9497 50.1918 38.0713L48.2652 38.9866L46.2501 38.3558C41.5813 36.8941 37.5324 36.0473 33.0217 35.589C30.7713 35.3603 25.3809 35.3262 23.3393 35.5275C20.1259 35.8446 16.6678 36.5848 14.1054 37.5042C12.0376 38.2462 9.16423 39.732 9.39844 39.9383C9.4348 39.9705 10.1115 39.9161 10.9021 39.8174C17.8763 38.947 26.1387 39.5291 33.4206 41.4041C38.3928 42.6844 44.2288 45.0273 47.3519 46.9966L48.2663 47.5734L49.3467 46.6406C55.6257 41.2189 65.9578 37.0416 75.1722 36.1993C77.9218 35.948 81.6256 36.1887 83.5567 36.7442C84.1861 36.9253 84.1091 36.7199 83.3343 36.1519C81.0312 34.4638 77.2373 33.1681 73.5816 32.8211L72.5387 32.7222L73.7661 30.8769C78.8773 23.1941 82.0801 15.6441 83.5073 7.91272ZM38.6465 16.6651C38.5845 16.6629 37.0444 16.4146 35.2242 16.1135C33.404 15.8124 31.7915 15.541 31.641 15.5107C31.4905 15.4802 26.4237 17.2474 20.3818 19.4378L9.3963 23.4203V25.3876C9.3963 27.1948 9.41582 27.3495 9.63586 27.2897C10.1203 27.1579 38.354 16.9065 38.5532 16.7899C38.6665 16.7236 38.7085 16.6674 38.6465 16.6651ZM5.18692 54.1719C5.0928 54.145 5.0158 53.998 5.0158 53.8452C5.0158 53.5999 4.92837 53.5676 4.2629 53.5676C3.59743 53.5676 3.51001 53.5999 3.51001 53.8452C3.51001 53.998 3.43301 54.145 3.33889 54.1719C1.62482 54.6626 0.534509 55.5957 0.156456 56.8956C-0.219726 58.1882 0.124907 59.598 1.04063 60.5123C1.50959 60.9808 2.48867 61.5288 3.13356 61.6838C3.41857 61.7524 3.51001 61.8565 3.51001 62.1134C3.51001 62.4328 3.55332 62.4525 4.25381 62.4525C4.96099 62.4525 4.99976 62.4342 5.04093 62.0816C5.07462 61.7938 5.17649 61.6913 5.49492 61.6255C6.57935 61.4011 7.82446 60.368 8.26428 59.3278C8.38138 59.0511 8.4755 58.4279 8.47657 57.924C8.48031 56.0688 7.36353 54.7951 5.18692 54.1719ZM73.4311 54.3668C72.887 54.2275 72.7766 54.1461 72.7766 53.8835C72.7766 53.5885 72.7221 53.5676 71.9553 53.5676C71.1823 53.5676 71.1339 53.5867 71.1339 53.8918C71.1339 54.1611 71.0465 54.2301 70.6187 54.2984C69.4707 54.4817 68.156 55.7109 67.833 56.9034C67.7494 57.2114 67.7119 57.8511 67.7496 58.3249C67.8667 59.7968 68.849 61.002 70.3407 61.5042C70.9385 61.7055 71.073 61.8099 71.1088 62.1004C71.15 62.4343 71.1941 62.4525 71.9644 62.4525C72.7421 62.4525 72.7766 62.4379 72.7766 62.1066C72.7766 61.9162 72.8536 61.7385 72.9477 61.7115C75.1636 61.077 76.3149 59.6346 76.1727 57.6707C76.0601 56.1188 74.9233 54.7487 73.4311 54.3668ZM58.5528 54.7706C58.3261 54.5678 57.8189 54.3063 57.4256 54.1897C56.0808 53.791 54.8648 54.0422 53.8582 54.9271C52.9922 55.6884 52.6016 56.6252 52.6016 57.9417C52.6016 59.2571 52.9922 60.1952 53.8563 60.9547C54.8373 61.8168 56.0955 62.0926 57.3406 61.7182C57.9753 61.5275 58.9921 60.8546 58.9213 60.6723C58.909 60.6405 58.8199 60.5266 58.6919 60.3752C58.5969 60.2631 58.4804 60.1305 58.3574 59.9955L57.8326 59.4192L57.4909 59.7398C57.2125 60.0008 57 60.0604 56.3476 60.0604C55.6543 60.0604 55.4918 60.0084 55.1413 59.6728C54.2809 58.8498 54.2285 57.2166 55.034 56.3389C55.4062 55.9333 55.592 55.8451 56.1971 55.7871C56.796 55.7296 56.9871 55.7696 57.332 56.0242L57.747 56.3305L58.3558 55.7351L58.9648 55.1395L58.5528 54.7706ZM11.9288 59.065L11.8913 56.6581L11.8539 54.2511H11.0358H10.2176V57.9477V61.6444L11.1935 61.6042L12.1691 61.564L13.4864 59.3207L14.8035 57.0773L14.8409 59.3548L14.8786 61.6324H15.7649H16.6515V57.9357V54.239L15.6598 54.2792L14.6682 54.3194L13.2985 56.6922L11.9288 59.065ZM24.9561 61.564L23.6262 57.9417L22.2964 54.3194L21.3895 54.2789C20.551 54.2416 20.4735 54.2623 20.3644 54.5523C19.8393 55.9508 17.8835 61.461 17.8835 61.542C17.8835 61.5986 18.2918 61.6266 18.7909 61.6045L19.6981 61.564L20.5427 59.2016L21.3876 56.8392L22.1881 59.1333C22.6284 60.3951 23.0321 61.4766 23.0848 61.5366C23.1378 61.5967 23.5802 61.6275 24.0685 61.6049L24.9561 61.564ZM27.945 58.9582L27.9075 56.6046L27.8701 54.2511H26.9835H26.0969V57.9417V61.6324H27.0897H28.0824L29.451 59.294L30.8197 56.9558L30.8571 59.294L30.8945 61.6324H31.7811H32.6677V57.9417V54.2511H31.6584H30.6491L29.297 56.6046L27.945 58.9582ZM41.1343 61.515C41.1078 61.4433 40.4704 59.7799 39.7175 57.8184L38.3486 54.252L37.4896 54.2516C36.7255 54.2511 36.6175 54.285 36.5108 54.5586C35.2333 57.8366 34.3585 60.0924 34.0986 60.7781L33.7751 61.6324H34.7162H35.6574L35.8846 60.9489L36.1119 60.2655H37.4458H38.7796L38.9812 60.9148L39.1828 61.564L40.1822 61.6045C40.7739 61.6284 41.1624 61.5918 41.1343 61.515ZM47.6401 58.8701C47.08 57.3445 46.4642 55.6811 46.272 55.1737L45.922 54.2511H45.041C44.2058 54.2511 44.1521 54.2707 44.0152 54.627C43.543 55.8543 41.5656 61.4208 41.5656 61.5226C41.5656 61.5899 41.9741 61.6266 42.4735 61.6045L43.3812 61.564L44.2127 59.1987L45.044 56.8334L45.6381 58.5153C45.9645 59.4403 46.345 60.5047 46.4837 60.8806L46.7359 61.564L47.697 61.604L48.6579 61.6439L47.6401 58.8701ZM66.1158 59.6903C65.7011 58.6159 65.0672 56.9678 64.7073 56.028L64.0528 54.3194L63.1788 54.2818L62.3045 54.2441L60.9741 57.6991C60.5049 58.9181 60.0739 60.0392 59.8127 60.7211C59.6667 61.1022 59.5736 61.346 59.5565 61.3932C59.4784 61.6064 59.572 61.6324 60.4177 61.6324H61.3666L61.5687 60.9831L61.7706 60.3338H63.1143H64.4581L64.6851 60.9489L64.9124 61.564L65.8909 61.604L66.8695 61.644L66.1158 59.6903ZM80.4208 57.5624C80.3676 57.5079 80.0513 56.7559 79.7185 55.8913L79.1126 54.3194L78.1178 54.2789C77.3445 54.2474 77.1395 54.2778 77.1972 54.4156L78.3862 57.2406C78.9993 58.6969 79.4682 59.9734 79.4284 60.077C79.3313 60.3296 78.6728 60.3169 78.3851 60.0569C78.1744 59.8665 78.1095 59.9028 77.6429 60.4715C77.0662 61.1743 77.1143 61.3773 77.94 61.7219C79.0327 62.1781 80.3337 61.758 80.9197 60.7595C81.2312 60.2288 83.591 54.5348 83.591 54.3139C83.591 54.2725 83.1808 54.2568 82.6793 54.2789L81.7675 54.3194L81.1424 55.9904C80.7989 56.9094 80.474 57.6168 80.4208 57.5624ZM1.89673 57.7262C1.96223 56.9385 2.18762 56.5815 2.894 56.1457C3.11992 56.0063 3.35092 55.8922 3.40734 55.8919C3.46375 55.8916 3.51001 56.814 3.51001 57.9417C3.51001 59.0694 3.47311 59.9921 3.42793 59.9921C3.08115 59.9921 2.4074 59.4792 2.14779 59.0176C1.8978 58.5739 1.8478 58.3158 1.89673 57.7262ZM5.13237 59.9921C5.06821 59.9921 5.0158 59.0694 5.0158 57.9417C5.0158 56.814 5.06821 55.8913 5.13237 55.8913C5.19654 55.8913 5.45829 56.0309 5.71416 56.2016C6.59486 56.7891 6.89698 57.945 6.41866 58.8958C6.20156 59.3274 5.42166 59.9921 5.13237 59.9921ZM70.5634 59.7644C69.2405 58.9929 69.257 56.8025 70.5909 56.1308L71.0655 55.8919L71.1035 57.8926C71.1243 58.9931 71.112 59.9229 71.0756 59.9591C71.0396 59.9952 70.8088 59.9076 70.5634 59.7644ZM72.7766 59.9929V57.9417V55.8905L73.2215 56.0714C73.9068 56.3497 74.2824 57.0121 74.2824 57.9417C74.2824 58.8714 73.9068 59.5338 73.2215 59.8121L72.7766 59.9929ZM62.3713 58.6593C62.3705 58.6029 62.535 58.0805 62.7371 57.4982C62.9389 56.9159 63.1248 56.4599 63.1499 56.4849C63.217 56.5518 63.8787 58.5169 63.8787 58.6491C63.8787 58.7112 63.54 58.7619 63.1258 58.7619C62.7117 58.7619 62.3721 58.7158 62.3713 58.6593ZM36.8033 58.219L37.0602 57.4975C37.2404 56.9901 37.4217 56.5748 37.4629 56.5748C37.504 56.5748 37.6992 57.0669 37.8965 57.6683L38.2556 58.7619H37.4319C36.8311 58.7619 36.6249 58.7157 36.6701 58.591L36.8033 58.219ZM5.29172 68.4412C5.07275 68.2391 4.65914 68.0088 4.37279 67.9293C2.41702 67.3871 0.488255 68.5224 0.0869411 70.4522C-0.430944 72.9447 1.43606 75.1455 3.79395 74.8217C4.50113 74.7245 5.70025 74.0563 5.70025 73.7594C5.70025 73.6597 5.48904 73.3736 5.23076 73.1237L4.76127 72.6694L4.39097 72.9603C3.95303 73.3042 3.13142 73.3455 2.56354 73.0521C1.52857 72.5178 1.4513 70.2916 2.44483 69.6414C3.11484 69.203 3.80304 69.2316 4.49631 69.7266C4.6955 69.8687 4.80057 69.8135 5.21018 69.3509L5.69009 68.8087L5.29172 68.4412ZM39.0973 71.2691C39.0999 69.6392 38.3388 68.4749 36.9458 67.9785C36.6632 67.8778 36.1242 67.7955 35.7477 67.7955C34.4654 67.7955 33.4553 68.3521 32.8393 69.3985C32.5033 69.9697 32.4626 70.1718 32.4634 71.2691C32.4642 72.2756 32.5196 72.6025 32.7674 73.067C33.6142 74.6537 35.7132 75.3057 37.3188 74.4808C38.4607 73.8941 39.0946 72.7492 39.0973 71.2691ZM76.046 69.3671C76.6331 68.7807 76.5563 68.5569 75.6195 68.1214C73.7795 67.2661 71.7251 68.1035 71.0625 69.9789C70.6083 71.2647 70.9219 72.927 71.7922 73.8447C72.9223 75.0362 74.9532 75.1851 76.1302 74.1625L76.6285 73.7296L76.0815 73.1991L75.5347 72.6687L75.1639 72.9599C74.9113 73.1583 74.5982 73.2511 74.1819 73.2511C73.6739 73.2511 73.4948 73.1756 73.1223 72.8036C72.0475 71.7302 72.5582 69.6053 73.9541 69.3438C74.2846 69.2819 74.5829 69.3393 74.9984 69.5446L75.5802 69.8321L76.046 69.3671ZM11.4497 69.4238V68.672V67.9202H9.32785H7.20605V71.2691V74.618H9.3963H11.5865V73.9346V73.2511H10.1492H8.71185V72.5677V71.8842H10.0123H11.3128V71.2008V70.5173H10.0123H8.71185V69.9706V69.4238H10.0808H11.4497ZM18.0204 69.7723C18.0204 69.0995 17.6977 68.5212 17.1624 68.2346C16.8322 68.0577 16.2946 67.9842 15.043 67.9448L13.3661 67.892V71.255V74.618L15.043 74.6178C16.3689 74.6176 16.8183 74.5676 17.1894 74.3786C17.8955 74.0191 18.2257 73.4853 18.2257 72.7033C18.2257 72.1545 18.1557 71.966 17.8236 71.6199C17.6025 71.3894 17.3469 71.2008 17.2555 71.2008C17.1643 71.2008 17.2991 70.9916 17.5549 70.736C17.9143 70.3772 18.0204 70.1575 18.0204 69.7723ZM24.2489 69.3554V68.672V67.9885L22.1613 67.9508L20.0738 67.9131V71.2656V74.618H22.264H24.4543V73.9346V73.2511H23.0169H21.5796V72.5677V71.8842H22.8875H24.1954L24.1537 71.2349L24.112 70.5857L22.8458 70.5463L21.5796 70.5071V69.9704V69.4336L22.9142 69.3945L24.2489 69.3554ZM30.9271 70.0389C30.9271 69.1597 30.6681 68.7045 29.9154 68.2619C29.5393 68.0406 29.1449 67.9794 27.8423 67.94L26.2338 67.8913V71.2548V74.618H26.9867H27.7396V73.4061V72.1944L28.7104 72.1249C30.22 72.0171 30.9271 71.3515 30.9271 70.0389ZM46.4164 72.9436C46.364 72.7745 45.9525 71.5749 45.5022 70.2781L44.6833 67.9202H43.9331C43.3353 67.9202 43.169 67.9688 43.1157 68.1594C43.0789 68.2909 42.666 69.475 42.1982 70.7907L41.3479 73.1828L40.8065 73.2511L40.2651 73.3195V74.618V75.9166L40.9153 75.9583L41.5656 76V75.309V74.618H43.9612H46.3567V75.3015V75.985H46.9727H47.5888V74.618V73.2511H47.0503C46.6118 73.2511 46.4944 73.1943 46.4164 72.9436ZM53.2248 68.606C53.0117 68.3934 52.596 68.1524 52.3008 68.0705C52.0056 67.9887 51.1632 67.9214 50.4292 67.921L49.0946 67.9202V71.2691V74.618H50.7509C52.6296 74.618 53.1975 74.4449 53.6274 73.7405C54.121 72.9328 53.7994 71.502 53.0729 71.2719C52.7997 71.1853 52.8048 71.1656 53.2002 70.7706C53.548 70.4233 53.6119 70.2536 53.6119 69.6761C53.6119 69.1082 53.5464 68.9273 53.2248 68.606ZM57.3764 72.1401L57.3387 70.0301L57.301 67.9202H56.4832H55.6653V71.2754V74.6305L56.5818 74.5902L57.4983 74.5497L58.6694 72.5494L59.8405 70.5492L59.8782 72.5835L59.9161 74.618H60.7337H61.5516V71.2691V67.9202H60.677H59.8028L58.5895 70.0301L57.3764 72.1401ZM65.1107 70.5173V69.2188V67.9202H64.3578H63.6049V71.2691V74.618H64.3578H65.1107V73.2511V71.8842H66.2743H67.4379V73.2511V74.618H68.2592H69.0806V71.2691V67.9202H68.2592H67.4379V69.2188V70.5173H66.2743H65.1107ZM79.8142 70.3806C79.6623 70.3806 79.6211 70.1184 79.6211 69.1504V67.9202H78.8682H78.1153V71.2691V74.618H78.8682H79.6211V73.1862V71.7544L80.066 71.836C80.9791 72.0034 81.4742 72.6099 81.821 73.9846L81.9806 74.618H82.7859C83.7348 74.618 83.7578 74.557 83.3081 73.2239C82.9833 72.2611 82.3948 71.3453 81.8879 71.0136L81.5384 70.785L82.3937 69.6238C83.234 68.4826 83.5546 68.097 83.4733 67.9714C83.4185 67.8869 83.1816 67.9202 82.7985 67.9202H81.9726L80.9901 69.1504C80.4497 69.827 79.9206 70.3806 79.8142 70.3806ZM14.8719 70.6895V69.9883C14.8719 69.2879 14.8725 69.2871 15.3168 69.289C16.0505 69.292 16.3753 69.4346 16.4654 69.7934C16.5828 70.2605 16.2649 70.5328 15.5021 70.6186L14.8719 70.6895ZM27.7396 70.7907V70.0211V69.2515L28.3554 69.3209C29.066 69.4008 29.3823 69.6132 29.3823 70.0107C29.3823 70.4957 28.9861 70.7907 28.3345 70.7907H27.7396ZM35.7477 73.2511C34.0026 73.2511 33.3612 70.5091 34.8839 69.5562C35.7108 69.0389 36.887 69.4155 37.265 70.3186C37.8532 71.7244 37.0634 73.2511 35.7477 73.2511ZM50.9223 70.654C50.6273 70.654 50.6003 70.5969 50.6003 69.9706C50.6003 69.3057 50.6113 69.2871 51.0022 69.2871C51.7348 69.2871 52.1061 69.5113 52.1061 69.9537C52.1061 70.2796 52.0262 70.3817 51.6752 70.5039C51.438 70.5865 51.0993 70.654 50.9223 70.654ZM43.3647 71.8159C43.5786 71.0641 43.7908 70.3567 43.8366 70.2439C43.8828 70.1292 44.1234 70.7275 44.3825 71.6018C44.6376 72.4615 44.8237 73.1872 44.7964 73.2146C44.7689 73.242 44.348 73.2459 43.8609 73.2235L42.9754 73.1828L43.3647 71.8159ZM14.8719 73.2511V72.5677V71.8842H15.497C16.3365 71.8842 16.6515 72.0707 16.6515 72.5677C16.6515 73.0647 16.3365 73.2511 15.497 73.2511H14.8719ZM50.6003 73.2511V72.5677V71.8842H51.2752C51.9965 71.8842 52.3799 72.1212 52.3799 72.5677C52.3799 73.0141 51.9965 73.2511 51.2752 73.2511H50.6003Z" fill="#C9C9C9"/>
</svg>
