<svg width="90" height="45" viewBox="0 0 90 45" fill="none" xmlns="http://www.w3.org/2000/svg">
<path d="M25.001 31.4967C20.0304 31.4967 16.0005 27.4667 16.0005 22.496C16.0005 17.5249 20.0304 13.4949 25.001 13.4949C29.9723 13.4949 34.0022 17.5249 34.0022 22.496C34.0022 27.4667 29.9723 31.4967 25.001 31.4967ZM52.003 31.4967C47.0323 31.4967 43.0019 27.4667 43.0019 22.496C43.0019 17.5249 47.0323 13.4949 52.003 13.4949C53.9493 13.4949 55.7496 14.1149 57.2223 15.1651L60.7011 10.278C58.2471 8.52779 55.2468 7.49496 52.003 7.49496C46.0646 7.49496 40.9333 10.9463 38.502 15.9517C36.0713 10.9463 30.9395 7.49496 25.001 7.49496C16.7163 7.49496 10 14.2108 10 22.496C10 30.7808 16.7163 37.4971 25.001 37.4971C30.9395 37.4971 36.0713 34.0456 38.502 29.0407C40.9333 34.0456 46.0646 37.4971 52.003 37.4971C55.2468 37.4971 58.2471 36.4641 60.7011 34.714L57.2219 29.8273C55.7496 30.8766 53.9493 31.4967 52.003 31.4967ZM80.0055 7.74491H71.2549L59.504 22.496L71.2544 37.247L80.005 37.2466L66.7541 22.496L80.0055 7.74491Z" fill="#C9C9C9"/>
<path fill-rule="evenodd" clip-rule="evenodd" d="M0 7.51425e-09H90.0001V45H0V7.51425e-09ZM1.35046 1.3504H88.6501V43.65H1.35046V1.3504Z" fill="#C9C9C9"/>
</svg>
